G04 #@! TF.GenerationSoftware,KiCad,Pcbnew,9.0.7*
G04 #@! TF.CreationDate,2026-02-17T18:12:50-06:00*
G04 #@! TF.ProjectId,CNC_Coolant_Pump_Control,434e435f-436f-46f6-9c61-6e745f50756d,rev?*
G04 #@! TF.SameCoordinates,PX3750280PY66ff300*
G04 #@! TF.FileFunction,Copper,L2,Bot*
G04 #@! TF.FilePolarity,Positive*
%FSLAX46Y46*%
G04 Gerber Fmt 4.6, Leading zero omitted, Abs format (unit mm)*
G04 Created by KiCad (PCBNEW 9.0.7) date 2026-02-17 18:12:50*
%MOMM*%
%LPD*%
G01*
G04 APERTURE LIST*
G04 #@! TA.AperFunction,ComponentPad*
%ADD10C,1.600000*%
G04 #@! TD*
G04 #@! TA.AperFunction,ComponentPad*
%ADD11R,1.700000X1.700000*%
G04 #@! TD*
G04 #@! TA.AperFunction,ComponentPad*
%ADD12C,1.700000*%
G04 #@! TD*
G04 #@! TA.AperFunction,ComponentPad*
%ADD13C,3.200000*%
G04 #@! TD*
G04 #@! TA.AperFunction,ComponentPad*
%ADD14C,1.348000*%
G04 #@! TD*
G04 #@! TA.AperFunction,SMDPad,CuDef*
%ADD15R,2.250000X1.600000*%
G04 #@! TD*
G04 #@! TA.AperFunction,SMDPad,CuDef*
%ADD16R,6.100000X5.630000*%
G04 #@! TD*
G04 #@! TA.AperFunction,Conductor*
%ADD17C,0.500000*%
G04 #@! TD*
G04 #@! TA.AperFunction,Conductor*
%ADD18C,1.000000*%
G04 #@! TD*
G04 #@! TA.AperFunction,Conductor*
%ADD19C,0.600000*%
G04 #@! TD*
G04 APERTURE END LIST*
G04 #@! TA.AperFunction,ComponentPad*
G36*
G01*
X54550000Y33900000D02*
X53450000Y33900000D01*
G75*
G02*
X53200000Y34150000I0J250000D01*
G01*
X53200000Y35250000D01*
G75*
G02*
X53450000Y35500000I250000J0D01*
G01*
X54550000Y35500000D01*
G75*
G02*
X54800000Y35250000I0J-250000D01*
G01*
X54800000Y34150000D01*
G75*
G02*
X54550000Y33900000I-250000J0D01*
G01*
G37*
G04 #@! TD.AperFunction*
D10*
X54000000Y37200000D03*
D11*
X29200000Y9240000D03*
D12*
X29200000Y6700000D03*
D11*
X33600000Y9212500D03*
D12*
X33600000Y6672500D03*
G04 #@! TA.AperFunction,ComponentPad*
G36*
G01*
X52850000Y31770000D02*
X55550000Y31770000D01*
G75*
G02*
X55800000Y31520000I0J-250000D01*
G01*
X55800000Y28820000D01*
G75*
G02*
X55550000Y28570000I-250000J0D01*
G01*
X52850000Y28570000D01*
G75*
G02*
X52600000Y28820000I0J250000D01*
G01*
X52600000Y31520000D01*
G75*
G02*
X52850000Y31770000I250000J0D01*
G01*
G37*
G04 #@! TD.AperFunction*
D13*
X54200000Y14930000D03*
D11*
X47400000Y29830000D03*
D12*
X44860000Y29830000D03*
D14*
X32240000Y29130000D03*
X29700000Y29130000D03*
X27160000Y29130000D03*
X24620000Y29130000D03*
X19540000Y29130000D03*
X22080000Y29130000D03*
X14460000Y13890000D03*
X14460000Y29130000D03*
X17000000Y13890000D03*
X19540000Y13890000D03*
X22080000Y13890000D03*
X24620000Y13890000D03*
X27160000Y13890000D03*
X29700000Y13890000D03*
X32240000Y13890000D03*
X17000000Y29130000D03*
D11*
X47300000Y34430000D03*
D12*
X44760000Y34430000D03*
X42220000Y34430000D03*
D11*
X27100000Y38800000D03*
D12*
X24560000Y38800000D03*
X22020000Y38800000D03*
X19480000Y38800000D03*
X16940000Y38800000D03*
D11*
X47500000Y25005000D03*
D12*
X47500000Y22465000D03*
D11*
X54500000Y41460000D03*
D12*
X54500000Y44000000D03*
D11*
X7300000Y17820000D03*
D12*
X7300000Y20360000D03*
X7300000Y22900000D03*
X7300000Y25440000D03*
D11*
X14340000Y9100000D03*
D12*
X16880000Y9100000D03*
X19420000Y9100000D03*
X21960000Y9100000D03*
X24500000Y9100000D03*
D15*
X47000000Y44000000D03*
X47000000Y41460000D03*
X38500000Y41460000D03*
X38500000Y44000000D03*
G04 #@! TA.AperFunction,SMDPad,CuDef*
G36*
G01*
X35225000Y44110000D02*
X36175000Y44110000D01*
G75*
G02*
X36425000Y43860000I0J-250000D01*
G01*
X36425000Y43360000D01*
G75*
G02*
X36175000Y43110000I-250000J0D01*
G01*
X35225000Y43110000D01*
G75*
G02*
X34975000Y43360000I0J250000D01*
G01*
X34975000Y43860000D01*
G75*
G02*
X35225000Y44110000I250000J0D01*
G01*
G37*
G04 #@! TD.AperFunction*
G04 #@! TA.AperFunction,SMDPad,CuDef*
G36*
G01*
X35225000Y42210000D02*
X36175000Y42210000D01*
G75*
G02*
X36425000Y41960000I0J-250000D01*
G01*
X36425000Y41460000D01*
G75*
G02*
X36175000Y41210000I-250000J0D01*
G01*
X35225000Y41210000D01*
G75*
G02*
X34975000Y41460000I0J250000D01*
G01*
X34975000Y41960000D01*
G75*
G02*
X35225000Y42210000I250000J0D01*
G01*
G37*
G04 #@! TD.AperFunction*
G04 #@! TA.AperFunction,SMDPad,CuDef*
G36*
G01*
X27250000Y18612500D02*
X28150000Y18612500D01*
G75*
G02*
X28400000Y18362500I0J-250000D01*
G01*
X28400000Y17837500D01*
G75*
G02*
X28150000Y17587500I-250000J0D01*
G01*
X27250000Y17587500D01*
G75*
G02*
X27000000Y17837500I0J250000D01*
G01*
X27000000Y18362500D01*
G75*
G02*
X27250000Y18612500I250000J0D01*
G01*
G37*
G04 #@! TD.AperFunction*
G04 #@! TA.AperFunction,SMDPad,CuDef*
G36*
G01*
X27250000Y16787500D02*
X28150000Y16787500D01*
G75*
G02*
X28400000Y16537500I0J-250000D01*
G01*
X28400000Y16012500D01*
G75*
G02*
X28150000Y15762500I-250000J0D01*
G01*
X27250000Y15762500D01*
G75*
G02*
X27000000Y16012500I0J250000D01*
G01*
X27000000Y16537500D01*
G75*
G02*
X27250000Y16787500I250000J0D01*
G01*
G37*
G04 #@! TD.AperFunction*
G04 #@! TA.AperFunction,SMDPad,CuDef*
G36*
G01*
X19650000Y35575000D02*
X19650000Y34625000D01*
G75*
G02*
X19400000Y34375000I-250000J0D01*
G01*
X18900000Y34375000D01*
G75*
G02*
X18650000Y34625000I0J250000D01*
G01*
X18650000Y35575000D01*
G75*
G02*
X18900000Y35825000I250000J0D01*
G01*
X19400000Y35825000D01*
G75*
G02*
X19650000Y35575000I0J-250000D01*
G01*
G37*
G04 #@! TD.AperFunction*
G04 #@! TA.AperFunction,SMDPad,CuDef*
G36*
G01*
X17750000Y35575000D02*
X17750000Y34625000D01*
G75*
G02*
X17500000Y34375000I-250000J0D01*
G01*
X17000000Y34375000D01*
G75*
G02*
X16750000Y34625000I0J250000D01*
G01*
X16750000Y35575000D01*
G75*
G02*
X17000000Y35825000I250000J0D01*
G01*
X17500000Y35825000D01*
G75*
G02*
X17750000Y35575000I0J-250000D01*
G01*
G37*
G04 #@! TD.AperFunction*
G04 #@! TA.AperFunction,SMDPad,CuDef*
G36*
G01*
X4375000Y22700000D02*
X3425000Y22700000D01*
G75*
G02*
X3175000Y22950000I0J250000D01*
G01*
X3175000Y23450000D01*
G75*
G02*
X3425000Y23700000I250000J0D01*
G01*
X4375000Y23700000D01*
G75*
G02*
X4625000Y23450000I0J-250000D01*
G01*
X4625000Y22950000D01*
G75*
G02*
X4375000Y22700000I-250000J0D01*
G01*
G37*
G04 #@! TD.AperFunction*
G04 #@! TA.AperFunction,SMDPad,CuDef*
G36*
G01*
X4375000Y24600000D02*
X3425000Y24600000D01*
G75*
G02*
X3175000Y24850000I0J250000D01*
G01*
X3175000Y25350000D01*
G75*
G02*
X3425000Y25600000I250000J0D01*
G01*
X4375000Y25600000D01*
G75*
G02*
X4625000Y25350000I0J-250000D01*
G01*
X4625000Y24850000D01*
G75*
G02*
X4375000Y24600000I-250000J0D01*
G01*
G37*
G04 #@! TD.AperFunction*
G04 #@! TA.AperFunction,SMDPad,CuDef*
G36*
G01*
X38650000Y13587500D02*
X37750000Y13587500D01*
G75*
G02*
X37500000Y13837500I0J250000D01*
G01*
X37500000Y14362500D01*
G75*
G02*
X37750000Y14612500I250000J0D01*
G01*
X38650000Y14612500D01*
G75*
G02*
X38900000Y14362500I0J-250000D01*
G01*
X38900000Y13837500D01*
G75*
G02*
X38650000Y13587500I-250000J0D01*
G01*
G37*
G04 #@! TD.AperFunction*
G04 #@! TA.AperFunction,SMDPad,CuDef*
G36*
G01*
X38650000Y15412500D02*
X37750000Y15412500D01*
G75*
G02*
X37500000Y15662500I0J250000D01*
G01*
X37500000Y16187500D01*
G75*
G02*
X37750000Y16437500I250000J0D01*
G01*
X38650000Y16437500D01*
G75*
G02*
X38900000Y16187500I0J-250000D01*
G01*
X38900000Y15662500D01*
G75*
G02*
X38650000Y15412500I-250000J0D01*
G01*
G37*
G04 #@! TD.AperFunction*
G04 #@! TA.AperFunction,SMDPad,CuDef*
G36*
G01*
X41062500Y12512500D02*
X41962500Y12512500D01*
G75*
G02*
X42212500Y12262500I0J-250000D01*
G01*
X42212500Y11737500D01*
G75*
G02*
X41962500Y11487500I-250000J0D01*
G01*
X41062500Y11487500D01*
G75*
G02*
X40812500Y11737500I0J250000D01*
G01*
X40812500Y12262500D01*
G75*
G02*
X41062500Y12512500I250000J0D01*
G01*
G37*
G04 #@! TD.AperFunction*
G04 #@! TA.AperFunction,SMDPad,CuDef*
G36*
G01*
X41062500Y10687500D02*
X41962500Y10687500D01*
G75*
G02*
X42212500Y10437500I0J-250000D01*
G01*
X42212500Y9912500D01*
G75*
G02*
X41962500Y9662500I-250000J0D01*
G01*
X41062500Y9662500D01*
G75*
G02*
X40812500Y9912500I0J250000D01*
G01*
X40812500Y10437500D01*
G75*
G02*
X41062500Y10687500I250000J0D01*
G01*
G37*
G04 #@! TD.AperFunction*
G04 #@! TA.AperFunction,SMDPad,CuDef*
G36*
G01*
X39585000Y13756250D02*
X39585000Y14483750D01*
G75*
G02*
X39706250Y14605000I121250J0D01*
G01*
X42293750Y14605000D01*
G75*
G02*
X42415000Y14483750I0J-121250D01*
G01*
X42415000Y13756250D01*
G75*
G02*
X42293750Y13635000I-121250J0D01*
G01*
X39706250Y13635000D01*
G75*
G02*
X39585000Y13756250I0J121250D01*
G01*
G37*
G04 #@! TD.AperFunction*
G04 #@! TA.AperFunction,SMDPad,CuDef*
G36*
G01*
X39585000Y18336250D02*
X39585000Y19063750D01*
G75*
G02*
X39706250Y19185000I121250J0D01*
G01*
X42293750Y19185000D01*
G75*
G02*
X42415000Y19063750I0J-121250D01*
G01*
X42415000Y18336250D01*
G75*
G02*
X42293750Y18215000I-121250J0D01*
G01*
X39706250Y18215000D01*
G75*
G02*
X39585000Y18336250I0J121250D01*
G01*
G37*
G04 #@! TD.AperFunction*
D16*
X47650000Y16410000D03*
G04 #@! TA.AperFunction,SMDPad,CuDef*
G36*
G01*
X22100000Y5525000D02*
X22100000Y6475000D01*
G75*
G02*
X22350000Y6725000I250000J0D01*
G01*
X22850000Y6725000D01*
G75*
G02*
X23100000Y6475000I0J-250000D01*
G01*
X23100000Y5525000D01*
G75*
G02*
X22850000Y5275000I-250000J0D01*
G01*
X22350000Y5275000D01*
G75*
G02*
X22100000Y5525000I0J250000D01*
G01*
G37*
G04 #@! TD.AperFunction*
G04 #@! TA.AperFunction,SMDPad,CuDef*
G36*
G01*
X24000000Y5525000D02*
X24000000Y6475000D01*
G75*
G02*
X24250000Y6725000I250000J0D01*
G01*
X24750000Y6725000D01*
G75*
G02*
X25000000Y6475000I0J-250000D01*
G01*
X25000000Y5525000D01*
G75*
G02*
X24750000Y5275000I-250000J0D01*
G01*
X24250000Y5275000D01*
G75*
G02*
X24000000Y5525000I0J250000D01*
G01*
G37*
G04 #@! TD.AperFunction*
G04 #@! TA.AperFunction,SMDPad,CuDef*
G36*
G01*
X51825000Y44450000D02*
X51825000Y43550000D01*
G75*
G02*
X51575000Y43300000I-250000J0D01*
G01*
X51050000Y43300000D01*
G75*
G02*
X50800000Y43550000I0J250000D01*
G01*
X50800000Y44450000D01*
G75*
G02*
X51050000Y44700000I250000J0D01*
G01*
X51575000Y44700000D01*
G75*
G02*
X51825000Y44450000I0J-250000D01*
G01*
G37*
G04 #@! TD.AperFunction*
G04 #@! TA.AperFunction,SMDPad,CuDef*
G36*
G01*
X50000000Y44450000D02*
X50000000Y43550000D01*
G75*
G02*
X49750000Y43300000I-250000J0D01*
G01*
X49225000Y43300000D01*
G75*
G02*
X48975000Y43550000I0J250000D01*
G01*
X48975000Y44450000D01*
G75*
G02*
X49225000Y44700000I250000J0D01*
G01*
X49750000Y44700000D01*
G75*
G02*
X50000000Y44450000I0J-250000D01*
G01*
G37*
G04 #@! TD.AperFunction*
G04 #@! TA.AperFunction,SMDPad,CuDef*
G36*
G01*
X19650000Y33175000D02*
X19650000Y32225000D01*
G75*
G02*
X19400000Y31975000I-250000J0D01*
G01*
X18900000Y31975000D01*
G75*
G02*
X18650000Y32225000I0J250000D01*
G01*
X18650000Y33175000D01*
G75*
G02*
X18900000Y33425000I250000J0D01*
G01*
X19400000Y33425000D01*
G75*
G02*
X19650000Y33175000I0J-250000D01*
G01*
G37*
G04 #@! TD.AperFunction*
G04 #@! TA.AperFunction,SMDPad,CuDef*
G36*
G01*
X17750000Y33175000D02*
X17750000Y32225000D01*
G75*
G02*
X17500000Y31975000I-250000J0D01*
G01*
X17000000Y31975000D01*
G75*
G02*
X16750000Y32225000I0J250000D01*
G01*
X16750000Y33175000D01*
G75*
G02*
X17000000Y33425000I250000J0D01*
G01*
X17500000Y33425000D01*
G75*
G02*
X17750000Y33175000I0J-250000D01*
G01*
G37*
G04 #@! TD.AperFunction*
G04 #@! TA.AperFunction,SMDPad,CuDef*
G36*
G01*
X43225000Y25430000D02*
X44175000Y25430000D01*
G75*
G02*
X44425000Y25180000I0J-250000D01*
G01*
X44425000Y24680000D01*
G75*
G02*
X44175000Y24430000I-250000J0D01*
G01*
X43225000Y24430000D01*
G75*
G02*
X42975000Y24680000I0J250000D01*
G01*
X42975000Y25180000D01*
G75*
G02*
X43225000Y25430000I250000J0D01*
G01*
G37*
G04 #@! TD.AperFunction*
G04 #@! TA.AperFunction,SMDPad,CuDef*
G36*
G01*
X43225000Y23530000D02*
X44175000Y23530000D01*
G75*
G02*
X44425000Y23280000I0J-250000D01*
G01*
X44425000Y22780000D01*
G75*
G02*
X44175000Y22530000I-250000J0D01*
G01*
X43225000Y22530000D01*
G75*
G02*
X42975000Y22780000I0J250000D01*
G01*
X42975000Y23280000D01*
G75*
G02*
X43225000Y23530000I250000J0D01*
G01*
G37*
G04 #@! TD.AperFunction*
G04 #@! TA.AperFunction,SMDPad,CuDef*
G36*
G01*
X30887500Y38850000D02*
X30887500Y39750000D01*
G75*
G02*
X31137500Y40000000I250000J0D01*
G01*
X31662500Y40000000D01*
G75*
G02*
X31912500Y39750000I0J-250000D01*
G01*
X31912500Y38850000D01*
G75*
G02*
X31662500Y38600000I-250000J0D01*
G01*
X31137500Y38600000D01*
G75*
G02*
X30887500Y38850000I0J250000D01*
G01*
G37*
G04 #@! TD.AperFunction*
G04 #@! TA.AperFunction,SMDPad,CuDef*
G36*
G01*
X32712500Y38850000D02*
X32712500Y39750000D01*
G75*
G02*
X32962500Y40000000I250000J0D01*
G01*
X33487500Y40000000D01*
G75*
G02*
X33737500Y39750000I0J-250000D01*
G01*
X33737500Y38850000D01*
G75*
G02*
X33487500Y38600000I-250000J0D01*
G01*
X32962500Y38600000D01*
G75*
G02*
X32712500Y38850000I0J250000D01*
G01*
G37*
G04 #@! TD.AperFunction*
G04 #@! TA.AperFunction,SMDPad,CuDef*
G36*
G01*
X31750000Y18625000D02*
X32650000Y18625000D01*
G75*
G02*
X32900000Y18375000I0J-250000D01*
G01*
X32900000Y17850000D01*
G75*
G02*
X32650000Y17600000I-250000J0D01*
G01*
X31750000Y17600000D01*
G75*
G02*
X31500000Y17850000I0J250000D01*
G01*
X31500000Y18375000D01*
G75*
G02*
X31750000Y18625000I250000J0D01*
G01*
G37*
G04 #@! TD.AperFunction*
G04 #@! TA.AperFunction,SMDPad,CuDef*
G36*
G01*
X31750000Y16800000D02*
X32650000Y16800000D01*
G75*
G02*
X32900000Y16550000I0J-250000D01*
G01*
X32900000Y16025000D01*
G75*
G02*
X32650000Y15775000I-250000J0D01*
G01*
X31750000Y15775000D01*
G75*
G02*
X31500000Y16025000I0J250000D01*
G01*
X31500000Y16550000D01*
G75*
G02*
X31750000Y16800000I250000J0D01*
G01*
G37*
G04 #@! TD.AperFunction*
D17*
X44000000Y24930000D02*
X47425000Y24930000D01*
X47425000Y24930000D02*
X47500000Y25005000D01*
D18*
X54000000Y30370000D02*
X54200000Y30170000D01*
X53730000Y34430000D02*
X54000000Y34700000D01*
X54000000Y34700000D02*
X54000000Y30370000D01*
X47400000Y34330000D02*
X47300000Y34430000D01*
X47300000Y34430000D02*
X53730000Y34430000D01*
X47400000Y29830000D02*
X47400000Y34330000D01*
X47400000Y29830000D02*
X47400000Y25105000D01*
X47400000Y25105000D02*
X47500000Y25005000D01*
D17*
X34125000Y38400000D02*
X42220000Y38400000D01*
X42220000Y38400000D02*
X44760000Y35860000D01*
X41512500Y10175000D02*
X55225000Y10175000D01*
D19*
X17400000Y42100000D02*
X20700000Y45400000D01*
D17*
X33225000Y39300000D02*
X34125000Y38400000D01*
X24500000Y9100000D02*
X24500000Y6000000D01*
D18*
X44860000Y29760000D02*
X41000000Y25900000D01*
D19*
X58500000Y46000000D02*
X58500000Y38100000D01*
X31900000Y48400000D02*
X56100000Y48400000D01*
D17*
X29227500Y6472500D02*
X29227500Y6672500D01*
X58300000Y36300000D02*
X57400000Y37200000D01*
D19*
X16940000Y38800000D02*
X16940000Y36560000D01*
D17*
X3900000Y25100000D02*
X5260000Y25100000D01*
D19*
X58500000Y38100000D02*
X57850000Y37450000D01*
D17*
X15940000Y25440000D02*
X17000000Y26500000D01*
X55300000Y10100000D02*
X58300000Y13100000D01*
D19*
X17250000Y31350000D02*
X17000000Y31100000D01*
D18*
X46100000Y37200000D02*
X44760000Y35860000D01*
D17*
X24500000Y6000000D02*
X26000000Y4500000D01*
D19*
X16940000Y41640000D02*
X17400000Y42100000D01*
D18*
X41000000Y25900000D02*
X41000000Y18700000D01*
X44760000Y29930000D02*
X44860000Y29830000D01*
D19*
X30600000Y48400000D02*
X31900000Y48400000D01*
X17000000Y31100000D02*
X17000000Y29130000D01*
X17250000Y35100000D02*
X17250000Y32700000D01*
X16940000Y36560000D02*
X17300000Y36200000D01*
D18*
X44860000Y29830000D02*
X44860000Y29760000D01*
D17*
X26000000Y4500000D02*
X29200000Y4500000D01*
D18*
X54000000Y37200000D02*
X46100000Y37200000D01*
X44760000Y34430000D02*
X44760000Y29930000D01*
D17*
X17000000Y26500000D02*
X17000000Y29130000D01*
D19*
X16940000Y38800000D02*
X16940000Y41640000D01*
D18*
X44760000Y35860000D02*
X44760000Y34430000D01*
D17*
X33600000Y4500000D02*
X36100000Y4500000D01*
D19*
X57850000Y37450000D02*
X57600000Y37200000D01*
D17*
X36100000Y4500000D02*
X36100000Y4762500D01*
D19*
X20700000Y45400000D02*
X23500000Y45400000D01*
D17*
X33600000Y6672500D02*
X33600000Y4500000D01*
D19*
X28200000Y46000000D02*
X30600000Y48400000D01*
D17*
X7300000Y25440000D02*
X15940000Y25440000D01*
X33627500Y6672500D02*
X33600000Y6672500D01*
X55225000Y10175000D02*
X55300000Y10100000D01*
X29227500Y6672500D02*
X29200000Y6700000D01*
D19*
X17300000Y35150000D02*
X17250000Y35100000D01*
X56100000Y48400000D02*
X58500000Y46000000D01*
D17*
X36100000Y4762500D02*
X41512500Y10175000D01*
X29200000Y6700000D02*
X29200000Y4500000D01*
X5600000Y25440000D02*
X7300000Y25440000D01*
D19*
X17250000Y32700000D02*
X17250000Y31350000D01*
D17*
X58300000Y13100000D02*
X58300000Y36300000D01*
X29200000Y4500000D02*
X33600000Y4500000D01*
D19*
X57600000Y37200000D02*
X54000000Y37200000D01*
D18*
X57400000Y37200000D02*
X54000000Y37200000D01*
D19*
X17300000Y36200000D02*
X17300000Y35150000D01*
X27600000Y45400000D02*
X28200000Y46000000D01*
D17*
X5260000Y25100000D02*
X5600000Y25440000D01*
D19*
X23500000Y45400000D02*
X27600000Y45400000D01*
D17*
X27700000Y18100000D02*
X27700000Y19500000D01*
X17700000Y22900000D02*
X7300000Y22900000D01*
X19540000Y29130000D02*
X19540000Y30560000D01*
X32200000Y18112500D02*
X27712500Y18112500D01*
X3800000Y15200000D02*
X13700000Y5300000D01*
X21900000Y5300000D02*
X22600000Y6000000D01*
X27700000Y19500000D02*
X24500000Y22700000D01*
X19150000Y30950000D02*
X19150000Y32700000D01*
X19150000Y32700000D02*
X19150000Y35100000D01*
X32290000Y43610000D02*
X35700000Y43610000D01*
X19540000Y30560000D02*
X19150000Y30950000D01*
X19480000Y36480000D02*
X19480000Y38800000D01*
X19480000Y41380000D02*
X21500000Y43400000D01*
X3900000Y23200000D02*
X3800000Y23100000D01*
X24500000Y22700000D02*
X21580000Y22700000D01*
X3800000Y23100000D02*
X3800000Y15200000D01*
X19150000Y35100000D02*
X19150000Y36150000D01*
X19480000Y38800000D02*
X19480000Y41380000D01*
X38110000Y43610000D02*
X38500000Y44000000D01*
X32080000Y43400000D02*
X32290000Y43610000D01*
X21580000Y22700000D02*
X19540000Y24740000D01*
X19540000Y24740000D02*
X17700000Y22900000D01*
X21960000Y6640000D02*
X21960000Y9100000D01*
X5400000Y22900000D02*
X5100000Y23200000D01*
X19540000Y29130000D02*
X19540000Y24740000D01*
X19150000Y36150000D02*
X19480000Y36480000D01*
X27712500Y18112500D02*
X27700000Y18100000D01*
X21500000Y43400000D02*
X32080000Y43400000D01*
X22600000Y6000000D02*
X21960000Y6640000D01*
X5100000Y23200000D02*
X3900000Y23200000D01*
X7300000Y22900000D02*
X5400000Y22900000D01*
X35700000Y43610000D02*
X38110000Y43610000D01*
X13700000Y5300000D02*
X21900000Y5300000D01*
X38500000Y41460000D02*
X35950000Y41460000D01*
X31400000Y40800000D02*
X31400000Y39300000D01*
X29700000Y33300000D02*
X31475000Y35075000D01*
X35700000Y41710000D02*
X32310000Y41710000D01*
X35950000Y41460000D02*
X35700000Y41710000D01*
X32310000Y41710000D02*
X31400000Y40800000D01*
X31475000Y35075000D02*
X31475000Y39225000D01*
X29700000Y29130000D02*
X29700000Y33300000D01*
X31475000Y39225000D02*
X31400000Y39300000D01*
X46265000Y22465000D02*
X47500000Y22465000D01*
X45570000Y23030000D02*
X46200000Y22400000D01*
D18*
X47200000Y15100000D02*
X47200000Y22165000D01*
D17*
X44000000Y23030000D02*
X45570000Y23030000D01*
D18*
X54200000Y14930000D02*
X47370000Y14930000D01*
X47200000Y22165000D02*
X47500000Y22465000D01*
X47370000Y14930000D02*
X47200000Y15100000D01*
D17*
X46200000Y22400000D02*
X46265000Y22465000D01*
X47000000Y44000000D02*
X49487500Y44000000D01*
X54500000Y41460000D02*
X47000000Y41460000D01*
X51312500Y44000000D02*
X54500000Y44000000D01*
X24560000Y29190000D02*
X24620000Y29130000D01*
X24560000Y38800000D02*
X24560000Y29190000D01*
X27100000Y29190000D02*
X27160000Y29130000D01*
X27100000Y38800000D02*
X27100000Y29190000D01*
X22020000Y29190000D02*
X22080000Y29130000D01*
X22020000Y38800000D02*
X22020000Y29190000D01*
X14340000Y9100000D02*
X14340000Y13770000D01*
X14340000Y13770000D02*
X14460000Y13890000D01*
X7300000Y17820000D02*
X21240000Y17820000D01*
X22080000Y16980000D02*
X22080000Y13890000D01*
X21240000Y17820000D02*
X22080000Y16980000D01*
X41512500Y13607500D02*
X41000000Y14120000D01*
X41512500Y12000000D02*
X41512500Y13607500D01*
X38200000Y14100000D02*
X40980000Y14100000D01*
X40980000Y14100000D02*
X41000000Y14120000D01*
X38200000Y15925000D02*
X38200000Y24800000D01*
X38200000Y24800000D02*
X33870000Y29130000D01*
X33870000Y29130000D02*
X32240000Y29130000D01*
X16880000Y13770000D02*
X17000000Y13890000D01*
X16880000Y9100000D02*
X16880000Y13770000D01*
X19420000Y13770000D02*
X19540000Y13890000D01*
X19420000Y9100000D02*
X19420000Y13770000D01*
X24620000Y13890000D02*
X24620000Y18680000D01*
X24620000Y18680000D02*
X22940000Y20360000D01*
X22940000Y20360000D02*
X7300000Y20360000D01*
X27160000Y13890000D02*
X27160000Y15735000D01*
X29200000Y9240000D02*
X29200000Y10300000D01*
X27160000Y12340000D02*
X27160000Y13890000D01*
X27160000Y15735000D02*
X27700000Y16275000D01*
X29200000Y10300000D02*
X27160000Y12340000D01*
X33600000Y10800000D02*
X32240000Y12160000D01*
X32240000Y16247500D02*
X32200000Y16287500D01*
X32240000Y13890000D02*
X32240000Y16247500D01*
X33600000Y9212500D02*
X33600000Y10800000D01*
X32240000Y12160000D02*
X32240000Y13890000D01*
G04 #@! TA.AperFunction,Conductor*
G36*
X59442539Y49479815D02*
G01*
X59488294Y49427011D01*
X59499500Y49375500D01*
X59499500Y624500D01*
X59479815Y557461D01*
X59427011Y511706D01*
X59375500Y500500D01*
X624500Y500500D01*
X557461Y520185D01*
X511706Y572989D01*
X500500Y624500D01*
X500500Y4134398D01*
X1849500Y4134398D01*
X1849500Y3865603D01*
X1884582Y3599120D01*
X1884583Y3599115D01*
X1884584Y3599109D01*
X1884585Y3599107D01*
X1954152Y3339476D01*
X2057011Y3091150D01*
X2057019Y3091134D01*
X2137830Y2951168D01*
X2191413Y2858359D01*
X2191415Y2858356D01*
X2191416Y2858355D01*
X2355042Y2645112D01*
X2355048Y2645105D01*
X2545104Y2455049D01*
X2545110Y2455044D01*
X2758359Y2291413D01*
X2907968Y2205036D01*
X2991133Y2157020D01*
X2991149Y2157012D01*
X3146008Y2092868D01*
X3239474Y2054153D01*
X3499109Y1984584D01*
X3687319Y1959807D01*
X3765602Y1949500D01*
X3765603Y1949500D01*
X4034398Y1949500D01*
X4094905Y1957466D01*
X4300891Y1984584D01*
X4560526Y2054153D01*
X4747457Y2131583D01*
X4808850Y2157012D01*
X4808853Y2157014D01*
X4808859Y2157016D01*
X5041641Y2291413D01*
X5254890Y2455044D01*
X5444956Y2645110D01*
X5608587Y2858359D01*
X5742984Y3091141D01*
X5845847Y3339474D01*
X5915416Y3599109D01*
X5950500Y3865603D01*
X5950500Y4134397D01*
X5949615Y4141116D01*
X5930686Y4284904D01*
X5915416Y4400891D01*
X5845847Y4660526D01*
X5807132Y4753992D01*
X5742988Y4908851D01*
X5742980Y4908867D01*
X5694964Y4992032D01*
X5608587Y5141641D01*
X5444956Y5354890D01*
X5444951Y5354896D01*
X5254895Y5544952D01*
X5254888Y5544958D01*
X5041645Y5708584D01*
X5041644Y5708585D01*
X5041641Y5708587D01*
X4948832Y5762170D01*
X4808866Y5842981D01*
X4808850Y5842989D01*
X4560524Y5945848D01*
X4430708Y5980632D01*
X4300891Y6015416D01*
X4300885Y6015417D01*
X4300880Y6015418D01*
X4034398Y6050500D01*
X4034397Y6050500D01*
X3765603Y6050500D01*
X3765602Y6050500D01*
X3499119Y6015418D01*
X3499112Y6015417D01*
X3499109Y6015416D01*
X3444239Y6000714D01*
X3239475Y5945848D01*
X2991149Y5842989D01*
X2991133Y5842981D01*
X2758354Y5708584D01*
X2545111Y5544958D01*
X2545104Y5544952D01*
X2355048Y5354896D01*
X2355042Y5354889D01*
X2191416Y5141646D01*
X2057019Y4908867D01*
X2057011Y4908851D01*
X1954152Y4660525D01*
X1927532Y4561175D01*
X1893186Y4432992D01*
X1884585Y4400894D01*
X1884582Y4400881D01*
X1849500Y4134398D01*
X500500Y4134398D01*
X500500Y23514223D01*
X2174500Y23514223D01*
X2174500Y22885792D01*
X2174501Y22885777D01*
X2184904Y22753587D01*
X2184905Y22753580D01*
X2239902Y22535322D01*
X2239903Y22535319D01*
X2332991Y22330378D01*
X2332997Y22330368D01*
X2461174Y22145355D01*
X2461178Y22145350D01*
X2461181Y22145346D01*
X2461184Y22145343D01*
X2513181Y22093346D01*
X2546666Y22032023D01*
X2549500Y22005665D01*
X2549500Y15101578D01*
X2580290Y14907174D01*
X2641117Y14719970D01*
X2723180Y14558914D01*
X2730476Y14544595D01*
X2846172Y14385354D01*
X12746172Y4485354D01*
X12885354Y4346172D01*
X13044595Y4230476D01*
X13219971Y4141118D01*
X13219979Y4141114D01*
X13304223Y4113742D01*
X13346346Y4100056D01*
X13346347Y4100055D01*
X13346348Y4100055D01*
X13407173Y4080291D01*
X13480076Y4068745D01*
X13601578Y4049500D01*
X13601583Y4049500D01*
X21998422Y4049500D01*
X22192826Y4080291D01*
X22253656Y4100056D01*
X22359350Y4134398D01*
X53949500Y4134398D01*
X53949500Y3865603D01*
X53984582Y3599120D01*
X53984583Y3599115D01*
X53984584Y3599109D01*
X53984585Y3599107D01*
X54054152Y3339476D01*
X54157011Y3091150D01*
X54157019Y3091134D01*
X54237830Y2951168D01*
X54291413Y2858359D01*
X54291415Y2858356D01*
X54291416Y2858355D01*
X54455042Y2645112D01*
X54455048Y2645105D01*
X54645104Y2455049D01*
X54645110Y2455044D01*
X54858359Y2291413D01*
X55007968Y2205036D01*
X55091133Y2157020D01*
X55091149Y2157012D01*
X55246008Y2092868D01*
X55339474Y2054153D01*
X55599109Y1984584D01*
X55787319Y1959807D01*
X55865602Y1949500D01*
X55865603Y1949500D01*
X56134398Y1949500D01*
X56194905Y1957466D01*
X56400891Y1984584D01*
X56660526Y2054153D01*
X56847457Y2131583D01*
X56908850Y2157012D01*
X56908853Y2157014D01*
X56908859Y2157016D01*
X57141641Y2291413D01*
X57354890Y2455044D01*
X57544956Y2645110D01*
X57708587Y2858359D01*
X57842984Y3091141D01*
X57945847Y3339474D01*
X58015416Y3599109D01*
X58050500Y3865603D01*
X58050500Y4134397D01*
X58049615Y4141116D01*
X58030686Y4284904D01*
X58015416Y4400891D01*
X57945847Y4660526D01*
X57907132Y4753992D01*
X57842988Y4908851D01*
X57842980Y4908867D01*
X57794964Y4992032D01*
X57708587Y5141641D01*
X57544956Y5354890D01*
X57544951Y5354896D01*
X57354895Y5544952D01*
X57354888Y5544958D01*
X57141645Y5708584D01*
X57141644Y5708585D01*
X57141641Y5708587D01*
X57048832Y5762170D01*
X56908866Y5842981D01*
X56908850Y5842989D01*
X56660524Y5945848D01*
X56530708Y5980632D01*
X56400891Y6015416D01*
X56400885Y6015417D01*
X56400880Y6015418D01*
X56134398Y6050500D01*
X56134397Y6050500D01*
X55865603Y6050500D01*
X55865602Y6050500D01*
X55599119Y6015418D01*
X55599112Y6015417D01*
X55599109Y6015416D01*
X55544239Y6000714D01*
X55339475Y5945848D01*
X55091149Y5842989D01*
X55091133Y5842981D01*
X54858354Y5708584D01*
X54645111Y5544958D01*
X54645104Y5544952D01*
X54455048Y5354896D01*
X54455042Y5354889D01*
X54291416Y5141646D01*
X54157019Y4908867D01*
X54157011Y4908851D01*
X54054152Y4660525D01*
X54027532Y4561175D01*
X53993186Y4432992D01*
X53984585Y4400894D01*
X53984582Y4400881D01*
X53949500Y4134398D01*
X22359350Y4134398D01*
X22380026Y4141116D01*
X22555405Y4230476D01*
X22583403Y4250819D01*
X22649208Y4274299D01*
X22656289Y4274501D01*
X22914208Y4274501D01*
X22914216Y4274501D01*
X23046412Y4284904D01*
X23264683Y4339904D01*
X23469626Y4432993D01*
X23654654Y4561181D01*
X23813819Y4720346D01*
X23942007Y4905374D01*
X24035096Y5110317D01*
X24090096Y5328588D01*
X24100500Y5460783D01*
X24100499Y6539216D01*
X24090096Y6671412D01*
X24035096Y6889683D01*
X23942007Y7094626D01*
X23834709Y7249501D01*
X23813825Y7279646D01*
X23813822Y7279650D01*
X23813819Y7279654D01*
X23654654Y7438819D01*
X23654650Y7438822D01*
X23654645Y7438826D01*
X23469632Y7567003D01*
X23469630Y7567005D01*
X23469626Y7567007D01*
X23469622Y7567009D01*
X23339910Y7625927D01*
X23287012Y7671574D01*
X23267191Y7738573D01*
X23286739Y7805653D01*
X23303511Y7826508D01*
X23354261Y7877258D01*
X23354265Y7877262D01*
X23501936Y8069711D01*
X23623224Y8279788D01*
X23716054Y8503900D01*
X23778838Y8738211D01*
X23810500Y8978712D01*
X23810500Y9221288D01*
X23778838Y9461789D01*
X23716054Y9696100D01*
X23623224Y9920212D01*
X23501936Y10130289D01*
X23396715Y10267416D01*
X23354266Y10322737D01*
X23354260Y10322744D01*
X23182743Y10494261D01*
X23182736Y10494267D01*
X22990293Y10641933D01*
X22990292Y10641934D01*
X22990289Y10641936D01*
X22818661Y10741026D01*
X22780214Y10763223D01*
X22780205Y10763227D01*
X22556104Y10856053D01*
X22321785Y10918839D01*
X22081289Y10950500D01*
X22081288Y10950500D01*
X21838712Y10950500D01*
X21838711Y10950500D01*
X21598214Y10918839D01*
X21363895Y10856053D01*
X21139794Y10763227D01*
X21139785Y10763223D01*
X20929706Y10641933D01*
X20869986Y10596108D01*
X20804817Y10570914D01*
X20736372Y10584953D01*
X20686382Y10633767D01*
X20670500Y10694484D01*
X20670500Y12601037D01*
X20679143Y12630475D01*
X20685666Y12660460D01*
X20689422Y12665478D01*
X20690185Y12668076D01*
X20706816Y12688715D01*
X20709500Y12691399D01*
X20722317Y12704217D01*
X20783637Y12737702D01*
X20853329Y12732720D01*
X20897680Y12704218D01*
X20973550Y12628348D01*
X20973557Y12628342D01*
X21017660Y12594501D01*
X21147701Y12494717D01*
X21147708Y12494713D01*
X21337790Y12384968D01*
X21337795Y12384966D01*
X21337798Y12384964D01*
X21439196Y12342964D01*
X21540592Y12300964D01*
X21540593Y12300964D01*
X21540595Y12300963D01*
X21752620Y12244151D01*
X21970247Y12215500D01*
X21970254Y12215500D01*
X22189746Y12215500D01*
X22189753Y12215500D01*
X22407380Y12244151D01*
X22619405Y12300963D01*
X22822202Y12384964D01*
X23012299Y12494717D01*
X23186444Y12628343D01*
X23223579Y12665478D01*
X23262319Y12704217D01*
X23323642Y12737702D01*
X23393334Y12732718D01*
X23437681Y12704217D01*
X23513550Y12628348D01*
X23513557Y12628342D01*
X23557660Y12594501D01*
X23687701Y12494717D01*
X23687708Y12494713D01*
X23877790Y12384968D01*
X23877795Y12384966D01*
X23877798Y12384964D01*
X23979196Y12342964D01*
X24080592Y12300964D01*
X24080593Y12300964D01*
X24080595Y12300963D01*
X24292620Y12244151D01*
X24510247Y12215500D01*
X24510254Y12215500D01*
X24729746Y12215500D01*
X24729753Y12215500D01*
X24947380Y12244151D01*
X25159405Y12300963D01*
X25362202Y12384964D01*
X25552299Y12494717D01*
X25710015Y12615737D01*
X25775183Y12640930D01*
X25843627Y12626892D01*
X25893617Y12578078D01*
X25909500Y12517360D01*
X25909500Y12241578D01*
X25940290Y12047174D01*
X26001117Y11859970D01*
X26055200Y11753828D01*
X26090476Y11684595D01*
X26206172Y11525354D01*
X26206174Y11525352D01*
X27331635Y10399891D01*
X27365120Y10338568D01*
X27363171Y10278103D01*
X27360114Y10267421D01*
X27360113Y10267414D01*
X27349500Y10148034D01*
X27349500Y8331972D01*
X27349501Y8331966D01*
X27360113Y8212585D01*
X27416089Y8016955D01*
X27416090Y8016952D01*
X27416091Y8016951D01*
X27510302Y7836593D01*
X27532725Y7809093D01*
X27638890Y7678891D01*
X27703846Y7625927D01*
X27796593Y7550302D01*
X27976951Y7456091D01*
X28172582Y7400114D01*
X28291963Y7389500D01*
X30108036Y7389501D01*
X30227418Y7400114D01*
X30423049Y7456091D01*
X30603407Y7550302D01*
X30761109Y7678891D01*
X30889698Y7836593D01*
X30983909Y8016951D01*
X31039886Y8212582D01*
X31050500Y8331963D01*
X31050499Y10148036D01*
X31039886Y10267418D01*
X30983909Y10463049D01*
X30889698Y10643407D01*
X30792001Y10763223D01*
X30761109Y10801110D01*
X30637133Y10902198D01*
X30603407Y10929698D01*
X30423049Y11023909D01*
X30227418Y11079886D01*
X30227414Y11079887D01*
X30227405Y11079889D01*
X30221616Y11080965D01*
X30221940Y11082714D01*
X30164605Y11105246D01*
X30152955Y11115520D01*
X29224067Y12044407D01*
X29190582Y12105730D01*
X29195566Y12175421D01*
X29237438Y12231355D01*
X29302902Y12255772D01*
X29343835Y12251864D01*
X29372620Y12244151D01*
X29590247Y12215500D01*
X29590254Y12215500D01*
X29809746Y12215500D01*
X29809753Y12215500D01*
X30027380Y12244151D01*
X30239405Y12300963D01*
X30442202Y12384964D01*
X30632299Y12494717D01*
X30790015Y12615737D01*
X30855183Y12640930D01*
X30923627Y12626892D01*
X30973617Y12578078D01*
X30989500Y12517360D01*
X30989500Y12061578D01*
X31020290Y11867174D01*
X31081117Y11679970D01*
X31114401Y11614648D01*
X31170476Y11504595D01*
X31286172Y11345354D01*
X31286174Y11345352D01*
X31882053Y10749473D01*
X31915538Y10688150D01*
X31910554Y10618458D01*
X31904281Y10604381D01*
X31816090Y10435548D01*
X31760114Y10239917D01*
X31760113Y10239914D01*
X31752607Y10155484D01*
X31750112Y10127414D01*
X31749500Y10120534D01*
X31749500Y8304472D01*
X31749501Y8304466D01*
X31760113Y8185085D01*
X31816089Y7989455D01*
X31816090Y7989452D01*
X31816091Y7989451D01*
X31910302Y7809093D01*
X31910304Y7809091D01*
X32038890Y7651391D01*
X32097144Y7603892D01*
X32196593Y7522802D01*
X32376951Y7428591D01*
X32572582Y7372614D01*
X32691963Y7362000D01*
X34508036Y7362001D01*
X34627418Y7372614D01*
X34823049Y7428591D01*
X35003407Y7522802D01*
X35161109Y7651391D01*
X35289698Y7809093D01*
X35383909Y7989451D01*
X35439886Y8185082D01*
X35450500Y8304463D01*
X35450499Y10120536D01*
X35439886Y10239918D01*
X35383909Y10435549D01*
X35289698Y10615907D01*
X35225627Y10694484D01*
X35161109Y10773610D01*
X35003407Y10902198D01*
X34971549Y10918839D01*
X34891357Y10960728D01*
X34867435Y10983784D01*
X34842866Y11006134D01*
X34842109Y11008193D01*
X34841050Y11009214D01*
X34828983Y11038583D01*
X34827309Y11044838D01*
X34824433Y11063000D01*
X34819709Y11092827D01*
X34791022Y11181116D01*
X34758884Y11280025D01*
X34758882Y11280028D01*
X34758882Y11280030D01*
X34669523Y11455406D01*
X34633785Y11504595D01*
X34553828Y11614646D01*
X34414646Y11753828D01*
X33527866Y12640608D01*
X33494381Y12701931D01*
X33499365Y12771623D01*
X33517167Y12803770D01*
X33635283Y12957701D01*
X33745036Y13147798D01*
X33829037Y13350595D01*
X33885849Y13562620D01*
X33914500Y13780247D01*
X33914500Y13999753D01*
X33885849Y14217380D01*
X33829037Y14429405D01*
X33802399Y14493714D01*
X33745037Y14632199D01*
X33745032Y14632210D01*
X33635287Y14822292D01*
X33635283Y14822299D01*
X33635279Y14822304D01*
X33635276Y14822309D01*
X33519342Y14973398D01*
X33494148Y15038567D01*
X33508187Y15107012D01*
X33530031Y15136559D01*
X33613819Y15220346D01*
X33742007Y15405374D01*
X33835096Y15610317D01*
X33890096Y15828588D01*
X33900500Y15960783D01*
X33900499Y16614216D01*
X33890096Y16746412D01*
X33878461Y16792585D01*
X33835097Y16964679D01*
X33835096Y16964682D01*
X33822621Y16992146D01*
X33751502Y17148721D01*
X33741700Y17217897D01*
X33751503Y17251281D01*
X33790136Y17336335D01*
X33835096Y17435317D01*
X33890096Y17653588D01*
X33900500Y17785783D01*
X33900499Y18439216D01*
X33890096Y18571412D01*
X33835096Y18789683D01*
X33742007Y18994626D01*
X33673715Y19093200D01*
X33613825Y19179646D01*
X33613822Y19179650D01*
X33613819Y19179654D01*
X33454654Y19338819D01*
X33454650Y19338822D01*
X33454645Y19338826D01*
X33269632Y19467003D01*
X33269630Y19467005D01*
X33269626Y19467007D01*
X33241573Y19479749D01*
X33064681Y19560097D01*
X33064678Y19560098D01*
X32846420Y19615095D01*
X32846413Y19615096D01*
X32802347Y19618564D01*
X32714217Y19625500D01*
X32714215Y19625500D01*
X31685791Y19625500D01*
X31685776Y19625499D01*
X31553586Y19615096D01*
X31553579Y19615095D01*
X31335321Y19560098D01*
X31335318Y19560097D01*
X31130377Y19467009D01*
X31130367Y19467004D01*
X31012108Y19385072D01*
X30945792Y19363075D01*
X30941492Y19363000D01*
X29074500Y19363000D01*
X29069335Y19364517D01*
X29064060Y19363440D01*
X29036160Y19374258D01*
X29007461Y19382685D01*
X29003936Y19386753D01*
X28998916Y19388699D01*
X28981292Y19412886D01*
X28961706Y19435489D01*
X28960094Y19441977D01*
X28957769Y19445168D01*
X28954200Y19465707D01*
X28950712Y19479749D01*
X28950500Y19483369D01*
X28950500Y19598417D01*
X28940764Y19659886D01*
X28919709Y19792827D01*
X28884980Y19899709D01*
X28858884Y19980025D01*
X28769524Y20155405D01*
X28653828Y20314646D01*
X28514646Y20453828D01*
X25314646Y23653828D01*
X25155405Y23769524D01*
X25131012Y23781953D01*
X24980030Y23858883D01*
X24792826Y23919710D01*
X24598422Y23950500D01*
X24598417Y23950500D01*
X22149336Y23950500D01*
X22082297Y23970185D01*
X22061655Y23986819D01*
X20826819Y25221655D01*
X20793334Y25282978D01*
X20790500Y25309336D01*
X20790500Y27757360D01*
X20810185Y27824399D01*
X20862989Y27870154D01*
X20932147Y27880098D01*
X20989984Y27855738D01*
X21147701Y27734717D01*
X21147708Y27734713D01*
X21337790Y27624968D01*
X21337795Y27624966D01*
X21337798Y27624964D01*
X21439196Y27582964D01*
X21540592Y27540964D01*
X21540593Y27540964D01*
X21540595Y27540963D01*
X21752620Y27484151D01*
X21970247Y27455500D01*
X21970254Y27455500D01*
X22189746Y27455500D01*
X22189753Y27455500D01*
X22407380Y27484151D01*
X22619405Y27540963D01*
X22822202Y27624964D01*
X23012299Y27734717D01*
X23186444Y27868343D01*
X23198199Y27880098D01*
X23262319Y27944217D01*
X23323642Y27977702D01*
X23393334Y27972718D01*
X23437681Y27944217D01*
X23513550Y27868348D01*
X23513557Y27868342D01*
X23529986Y27855736D01*
X23687701Y27734717D01*
X23687708Y27734713D01*
X23877790Y27624968D01*
X23877795Y27624966D01*
X23877798Y27624964D01*
X23979196Y27582964D01*
X24080592Y27540964D01*
X24080593Y27540964D01*
X24080595Y27540963D01*
X24292620Y27484151D01*
X24510247Y27455500D01*
X24510254Y27455500D01*
X24729746Y27455500D01*
X24729753Y27455500D01*
X24947380Y27484151D01*
X25159405Y27540963D01*
X25362202Y27624964D01*
X25552299Y27734717D01*
X25726444Y27868343D01*
X25738199Y27880098D01*
X25802319Y27944217D01*
X25863642Y27977702D01*
X25933334Y27972718D01*
X25977681Y27944217D01*
X26053550Y27868348D01*
X26053557Y27868342D01*
X26069986Y27855736D01*
X26227701Y27734717D01*
X26227708Y27734713D01*
X26417790Y27624968D01*
X26417795Y27624966D01*
X26417798Y27624964D01*
X26519196Y27582964D01*
X26620592Y27540964D01*
X26620593Y27540964D01*
X26620595Y27540963D01*
X26832620Y27484151D01*
X27050247Y27455500D01*
X27050254Y27455500D01*
X27269746Y27455500D01*
X27269753Y27455500D01*
X27487380Y27484151D01*
X27699405Y27540963D01*
X27902202Y27624964D01*
X28092299Y27734717D01*
X28266444Y27868343D01*
X28278199Y27880098D01*
X28342319Y27944217D01*
X28403642Y27977702D01*
X28473334Y27972718D01*
X28517681Y27944217D01*
X28593550Y27868348D01*
X28593557Y27868342D01*
X28609986Y27855736D01*
X28767701Y27734717D01*
X28767708Y27734713D01*
X28957790Y27624968D01*
X28957795Y27624966D01*
X28957798Y27624964D01*
X29059196Y27582964D01*
X29160592Y27540964D01*
X29160593Y27540964D01*
X29160595Y27540963D01*
X29372620Y27484151D01*
X29590247Y27455500D01*
X29590254Y27455500D01*
X29809746Y27455500D01*
X29809753Y27455500D01*
X30027380Y27484151D01*
X30239405Y27540963D01*
X30442202Y27624964D01*
X30632299Y27734717D01*
X30806444Y27868343D01*
X30818199Y27880098D01*
X30882319Y27944217D01*
X30943642Y27977702D01*
X31013334Y27972718D01*
X31057681Y27944217D01*
X31133550Y27868348D01*
X31133557Y27868342D01*
X31149986Y27855736D01*
X31307701Y27734717D01*
X31307708Y27734713D01*
X31497790Y27624968D01*
X31497795Y27624966D01*
X31497798Y27624964D01*
X31599196Y27582964D01*
X31700592Y27540964D01*
X31700593Y27540964D01*
X31700595Y27540963D01*
X31912620Y27484151D01*
X32130247Y27455500D01*
X32130254Y27455500D01*
X32349746Y27455500D01*
X32349753Y27455500D01*
X32567380Y27484151D01*
X32779405Y27540963D01*
X32982202Y27624964D01*
X33172299Y27734717D01*
X33269643Y27809412D01*
X33334810Y27834606D01*
X33403255Y27820568D01*
X33432809Y27798717D01*
X36913181Y24318345D01*
X36946666Y24257022D01*
X36949500Y24230664D01*
X36949500Y17206836D01*
X36929815Y17139797D01*
X36913182Y17119155D01*
X36786179Y16992152D01*
X36786174Y16992146D01*
X36657997Y16807133D01*
X36657991Y16807123D01*
X36564903Y16602182D01*
X36564902Y16602179D01*
X36509905Y16383921D01*
X36509904Y16383914D01*
X36499500Y16251723D01*
X36499500Y15598292D01*
X36499501Y15598277D01*
X36509904Y15466087D01*
X36509905Y15466080D01*
X36564902Y15247822D01*
X36564903Y15247819D01*
X36648496Y15063781D01*
X36658299Y14994602D01*
X36648496Y14961219D01*
X36564903Y14777182D01*
X36564902Y14777179D01*
X36509905Y14558921D01*
X36509904Y14558914D01*
X36499500Y14426723D01*
X36499500Y13773292D01*
X36499501Y13773277D01*
X36509904Y13641087D01*
X36509905Y13641080D01*
X36564902Y13422822D01*
X36564903Y13422819D01*
X36657991Y13217878D01*
X36657997Y13217868D01*
X36786174Y13032855D01*
X36786178Y13032850D01*
X36786181Y13032846D01*
X36945346Y12873681D01*
X36945350Y12873678D01*
X36945354Y12873675D01*
X37059739Y12794429D01*
X37130374Y12745493D01*
X37335317Y12652404D01*
X37335321Y12652403D01*
X37553579Y12597406D01*
X37553581Y12597406D01*
X37553588Y12597404D01*
X37685783Y12587000D01*
X38714216Y12587001D01*
X38846412Y12597404D01*
X38919164Y12615736D01*
X39064676Y12652402D01*
X39064677Y12652403D01*
X39064683Y12652404D01*
X39194274Y12711268D01*
X39263450Y12721070D01*
X39294363Y12712357D01*
X39363139Y12682905D01*
X39389447Y12677182D01*
X39572465Y12637368D01*
X39572466Y12637368D01*
X39572471Y12637367D01*
X39620601Y12634500D01*
X39707528Y12634501D01*
X39774565Y12614817D01*
X39820321Y12562014D01*
X39830265Y12492855D01*
X39827769Y12480204D01*
X39822404Y12458914D01*
X39812000Y12326723D01*
X39812000Y11673292D01*
X39812001Y11673277D01*
X39822404Y11541087D01*
X39822405Y11541080D01*
X39877402Y11322822D01*
X39877403Y11322819D01*
X39970491Y11117878D01*
X39970497Y11117868D01*
X40098674Y10932855D01*
X40098678Y10932850D01*
X40098681Y10932846D01*
X40257846Y10773681D01*
X40257850Y10773678D01*
X40257854Y10773675D01*
X40272941Y10763223D01*
X40442874Y10645493D01*
X40647817Y10552404D01*
X40647821Y10552403D01*
X40866079Y10497406D01*
X40866081Y10497406D01*
X40866088Y10497404D01*
X40998283Y10487000D01*
X42026716Y10487001D01*
X42158912Y10497404D01*
X42377183Y10552404D01*
X42582126Y10645493D01*
X42767154Y10773681D01*
X42926319Y10932846D01*
X43054507Y11117874D01*
X43147596Y11322817D01*
X43202596Y11541088D01*
X43213000Y11673283D01*
X43212999Y12326716D01*
X43202596Y12458912D01*
X43193573Y12494719D01*
X43147597Y12677179D01*
X43147596Y12677182D01*
X43147596Y12677183D01*
X43074888Y12837254D01*
X43065086Y12906430D01*
X43094241Y12969927D01*
X43100086Y12976194D01*
X43162688Y13038794D01*
X43282764Y13216207D01*
X43354109Y13382813D01*
X43367094Y13413136D01*
X43367877Y13416735D01*
X43368764Y13418361D01*
X43368893Y13418763D01*
X43368970Y13418739D01*
X43401358Y13478061D01*
X43462679Y13511550D01*
X43532371Y13506570D01*
X43588307Y13464702D01*
X43606710Y13422740D01*
X43608493Y13423249D01*
X43610113Y13417585D01*
X43610114Y13417582D01*
X43615531Y13398650D01*
X43666089Y13221955D01*
X43666090Y13221954D01*
X43666091Y13221951D01*
X43760302Y13041593D01*
X43767437Y13032843D01*
X43888890Y12883891D01*
X43946089Y12837252D01*
X44046593Y12755302D01*
X44226951Y12661091D01*
X44422582Y12605114D01*
X44541963Y12594500D01*
X50758036Y12594501D01*
X50877418Y12605114D01*
X51073049Y12661091D01*
X51253407Y12755302D01*
X51411109Y12883891D01*
X51539698Y13041593D01*
X51633909Y13221951D01*
X51667576Y13339613D01*
X51681929Y13362290D01*
X51693079Y13386703D01*
X51700332Y13391365D01*
X51704944Y13398650D01*
X51729279Y13409968D01*
X51751857Y13424477D01*
X51764337Y13426272D01*
X51768297Y13428113D01*
X51786792Y13429500D01*
X52010728Y13429500D01*
X52077767Y13409815D01*
X52107675Y13382813D01*
X52257901Y13194436D01*
X52257902Y13194435D01*
X52464435Y12987902D01*
X52692794Y12805792D01*
X52940107Y12650395D01*
X53203263Y12523665D01*
X53478955Y12427197D01*
X53763714Y12362202D01*
X53763723Y12362201D01*
X53763728Y12362200D01*
X53957210Y12340401D01*
X54053953Y12329501D01*
X54053956Y12329500D01*
X54053959Y12329500D01*
X54346044Y12329500D01*
X54346045Y12329501D01*
X54494371Y12346213D01*
X54636271Y12362200D01*
X54636274Y12362201D01*
X54636286Y12362202D01*
X54921045Y12427197D01*
X55196737Y12523665D01*
X55459893Y12650395D01*
X55707206Y12805792D01*
X55935565Y12987902D01*
X56142098Y13194435D01*
X56324208Y13422794D01*
X56479605Y13670107D01*
X56606335Y13933263D01*
X56702803Y14208955D01*
X56767798Y14493714D01*
X56800500Y14783959D01*
X56800500Y15076041D01*
X56781146Y15247819D01*
X56767800Y15366272D01*
X56767799Y15366277D01*
X56767798Y15366286D01*
X56702803Y15651045D01*
X56606335Y15926737D01*
X56479605Y16189893D01*
X56324208Y16437206D01*
X56142098Y16665565D01*
X55935565Y16872098D01*
X55707206Y17054208D01*
X55459893Y17209605D01*
X55459890Y17209607D01*
X55196738Y17336335D01*
X54921046Y17432803D01*
X54921044Y17432804D01*
X54701280Y17482964D01*
X54636286Y17497798D01*
X54636283Y17497799D01*
X54636271Y17497801D01*
X54346047Y17530500D01*
X54346041Y17530500D01*
X54053959Y17530500D01*
X54053952Y17530500D01*
X53763728Y17497801D01*
X53763714Y17497798D01*
X53478955Y17432804D01*
X53478953Y17432803D01*
X53203261Y17336335D01*
X52940109Y17209607D01*
X52692795Y17054209D01*
X52464435Y16872099D01*
X52257901Y16665565D01*
X52107675Y16477187D01*
X52105529Y16475682D01*
X52104441Y16473297D01*
X52077093Y16455722D01*
X52050487Y16437047D01*
X52047189Y16436505D01*
X52045663Y16435523D01*
X52010728Y16430500D01*
X51824499Y16430500D01*
X51757460Y16450185D01*
X51711705Y16502989D01*
X51700499Y16554500D01*
X51700499Y19283029D01*
X51700499Y19283036D01*
X51689886Y19402418D01*
X51633909Y19598049D01*
X51539698Y19778407D01*
X51487684Y19842197D01*
X51411109Y19936110D01*
X51253409Y20064696D01*
X51253410Y20064696D01*
X51253407Y20064698D01*
X51073049Y20158909D01*
X51073048Y20158910D01*
X51073045Y20158911D01*
X50955829Y20192450D01*
X50877418Y20214886D01*
X50877415Y20214887D01*
X50877413Y20214887D01*
X50804631Y20221358D01*
X50758037Y20225500D01*
X50758033Y20225500D01*
X48824500Y20225500D01*
X48757461Y20245185D01*
X48711706Y20297989D01*
X48700500Y20349500D01*
X48700500Y20997135D01*
X48720185Y21064174D01*
X48736814Y21084812D01*
X48894265Y21242262D01*
X49041936Y21434711D01*
X49163224Y21644788D01*
X49256054Y21868900D01*
X49318838Y22103211D01*
X49350500Y22343712D01*
X49350500Y22586288D01*
X49318838Y22826789D01*
X49256054Y23061100D01*
X49163224Y23285212D01*
X49129158Y23344217D01*
X49110023Y23377361D01*
X49093550Y23445261D01*
X49116403Y23511288D01*
X49121298Y23517708D01*
X49189698Y23601593D01*
X49283909Y23781951D01*
X49339886Y23977582D01*
X49350500Y24096963D01*
X49350499Y25913036D01*
X49339886Y26032418D01*
X49283909Y26228049D01*
X49189698Y26408407D01*
X49064503Y26561947D01*
X49061109Y26566110D01*
X48946139Y26659855D01*
X48906622Y26717476D01*
X48900500Y26755957D01*
X48900500Y28160584D01*
X48920185Y28227623D01*
X48946138Y28256685D01*
X48961109Y28268891D01*
X49089698Y28426593D01*
X49183909Y28606951D01*
X49239886Y28802582D01*
X49250500Y28921963D01*
X49250499Y30738036D01*
X49239886Y30857418D01*
X49187636Y31040025D01*
X49183910Y31053046D01*
X49183909Y31053047D01*
X49183909Y31053049D01*
X49089698Y31233407D01*
X48961109Y31391109D01*
X48946135Y31403319D01*
X48906620Y31460942D01*
X48900500Y31499418D01*
X48900500Y32805500D01*
X48920185Y32872539D01*
X48972989Y32918294D01*
X49024500Y32929500D01*
X52356527Y32929500D01*
X52423566Y32909815D01*
X52469321Y32857011D01*
X52479265Y32787853D01*
X52450240Y32724297D01*
X52407808Y32692601D01*
X52230377Y32612009D01*
X52230367Y32612003D01*
X52045354Y32483826D01*
X52045342Y32483816D01*
X51886184Y32324658D01*
X51886174Y32324646D01*
X51757997Y32139633D01*
X51757991Y32139623D01*
X51664903Y31934682D01*
X51664902Y31934679D01*
X51609905Y31716421D01*
X51609904Y31716414D01*
X51599500Y31584223D01*
X51599500Y28755792D01*
X51599501Y28755777D01*
X51609904Y28623587D01*
X51609905Y28623580D01*
X51664902Y28405322D01*
X51664903Y28405319D01*
X51757991Y28200378D01*
X51757997Y28200368D01*
X51886174Y28015355D01*
X51886178Y28015350D01*
X51886181Y28015346D01*
X52045346Y27856181D01*
X52045350Y27856178D01*
X52045354Y27856175D01*
X52091220Y27824399D01*
X52230374Y27727993D01*
X52435317Y27634904D01*
X52435321Y27634903D01*
X52653579Y27579906D01*
X52653581Y27579906D01*
X52653588Y27579904D01*
X52785783Y27569500D01*
X55614216Y27569501D01*
X55746412Y27579904D01*
X55964683Y27634904D01*
X56169626Y27727993D01*
X56354654Y27856181D01*
X56513819Y28015346D01*
X56642007Y28200374D01*
X56735096Y28405317D01*
X56790096Y28623588D01*
X56800500Y28755783D01*
X56800499Y31584216D01*
X56790096Y31716412D01*
X56782226Y31747643D01*
X56735097Y31934679D01*
X56735096Y31934682D01*
X56692442Y32028588D01*
X56642007Y32139626D01*
X56513819Y32324654D01*
X56354654Y32483819D01*
X56354650Y32483822D01*
X56354645Y32483826D01*
X56169632Y32612003D01*
X56169630Y32612005D01*
X56169626Y32612007D01*
X56033262Y32673946D01*
X55964681Y32705097D01*
X55964678Y32705098D01*
X55746420Y32760095D01*
X55746414Y32760096D01*
X55614770Y32770457D01*
X55549482Y32795342D01*
X55508011Y32851573D01*
X55500500Y32894075D01*
X55500500Y33287364D01*
X55520185Y33354403D01*
X55522572Y33357980D01*
X55553474Y33402585D01*
X55642007Y33530374D01*
X55735096Y33735317D01*
X55790096Y33953588D01*
X55800500Y34085783D01*
X55800499Y35314216D01*
X55790096Y35446412D01*
X55786599Y35460289D01*
X55735097Y35664679D01*
X55735096Y35664682D01*
X55686617Y35771412D01*
X55642007Y35869626D01*
X55593261Y35939987D01*
X55513825Y36054646D01*
X55513822Y36054650D01*
X55513819Y36054654D01*
X55354654Y36213819D01*
X55354650Y36213822D01*
X55354645Y36213826D01*
X55169632Y36342003D01*
X55169630Y36342005D01*
X55169626Y36342007D01*
X55082496Y36381583D01*
X54964681Y36435097D01*
X54964678Y36435098D01*
X54746420Y36490095D01*
X54746413Y36490096D01*
X54702347Y36493564D01*
X54614217Y36500500D01*
X54614215Y36500500D01*
X53385791Y36500500D01*
X53385776Y36500499D01*
X53253586Y36490096D01*
X53253579Y36490095D01*
X53035321Y36435098D01*
X53035318Y36435097D01*
X52830377Y36342009D01*
X52830367Y36342003D01*
X52645354Y36213826D01*
X52645342Y36213816D01*
X52486184Y36054658D01*
X52486174Y36054646D01*
X52437151Y35983884D01*
X52382793Y35939987D01*
X52335223Y35930500D01*
X48969417Y35930500D01*
X48902378Y35950185D01*
X48873315Y35976139D01*
X48861109Y35991109D01*
X48703407Y36119698D01*
X48523049Y36213909D01*
X48523048Y36213910D01*
X48523045Y36213911D01*
X48405829Y36247450D01*
X48327418Y36269886D01*
X48327415Y36269887D01*
X48327413Y36269887D01*
X48261102Y36275783D01*
X48208037Y36280500D01*
X48208032Y36280500D01*
X46391971Y36280500D01*
X46391965Y36280500D01*
X46391964Y36280499D01*
X46380316Y36279464D01*
X46272584Y36269887D01*
X46076954Y36213911D01*
X46025769Y36187174D01*
X45896593Y36119698D01*
X45896591Y36119697D01*
X45896590Y36119696D01*
X45738890Y35991110D01*
X45610304Y35833410D01*
X45516089Y35653046D01*
X45488509Y35556655D01*
X45460936Y35460289D01*
X45460114Y35457417D01*
X45460113Y35457414D01*
X45449500Y35338034D01*
X45449500Y33521972D01*
X45449501Y33521966D01*
X45460113Y33402585D01*
X45516089Y33206955D01*
X45516090Y33206952D01*
X45516091Y33206951D01*
X45610302Y33026593D01*
X45610304Y33026591D01*
X45738892Y32868889D01*
X45853860Y32775146D01*
X45893378Y32717526D01*
X45899500Y32679044D01*
X45899500Y31499418D01*
X45879815Y31432379D01*
X45853865Y31403319D01*
X45838891Y31391109D01*
X45710304Y31233410D01*
X45616089Y31053046D01*
X45560114Y30857417D01*
X45560113Y30857414D01*
X45549500Y30738034D01*
X45549500Y28921972D01*
X45549501Y28921966D01*
X45560113Y28802585D01*
X45616089Y28606955D01*
X45616090Y28606952D01*
X45616091Y28606951D01*
X45710302Y28426593D01*
X45838891Y28268891D01*
X45853859Y28256686D01*
X45893377Y28199068D01*
X45899500Y28160584D01*
X45899500Y26561947D01*
X45879815Y26494908D01*
X45871602Y26483587D01*
X45810305Y26408413D01*
X45810303Y26408409D01*
X45726037Y26247089D01*
X45677550Y26196781D01*
X45616128Y26180500D01*
X44965465Y26180500D01*
X44898426Y26200185D01*
X44894877Y26202553D01*
X44830593Y26247089D01*
X44794627Y26272007D01*
X44589681Y26365097D01*
X44589678Y26365098D01*
X44371420Y26420095D01*
X44371413Y26420096D01*
X44327347Y26423564D01*
X44239217Y26430500D01*
X44239215Y26430500D01*
X43160791Y26430500D01*
X43160776Y26430499D01*
X43028586Y26420096D01*
X43028579Y26420095D01*
X42810321Y26365098D01*
X42810318Y26365097D01*
X42605377Y26272009D01*
X42605367Y26272003D01*
X42420354Y26143826D01*
X42420342Y26143816D01*
X42261184Y25984658D01*
X42261174Y25984646D01*
X42132997Y25799633D01*
X42132991Y25799623D01*
X42039903Y25594682D01*
X42039902Y25594679D01*
X41984905Y25376421D01*
X41984904Y25376414D01*
X41974500Y25244223D01*
X41974500Y24615792D01*
X41974501Y24615777D01*
X41984904Y24483587D01*
X41984905Y24483580D01*
X42039902Y24265322D01*
X42039903Y24265319D01*
X42132991Y24060378D01*
X42132997Y24060368D01*
X42139753Y24050616D01*
X42161750Y23984299D01*
X42144402Y23916618D01*
X42139753Y23909384D01*
X42132997Y23899633D01*
X42132991Y23899623D01*
X42039903Y23694682D01*
X42039902Y23694679D01*
X41984905Y23476421D01*
X41984904Y23476414D01*
X41974500Y23344223D01*
X41974500Y22715792D01*
X41974501Y22715777D01*
X41984904Y22583587D01*
X41984905Y22583580D01*
X42039902Y22365322D01*
X42039903Y22365319D01*
X42132991Y22160378D01*
X42132997Y22160368D01*
X42261174Y21975355D01*
X42261178Y21975350D01*
X42261181Y21975346D01*
X42420346Y21816181D01*
X42420350Y21816178D01*
X42420354Y21816175D01*
X42512773Y21752147D01*
X42605374Y21687993D01*
X42810317Y21594904D01*
X42810321Y21594903D01*
X43028579Y21539906D01*
X43028581Y21539906D01*
X43028588Y21539904D01*
X43160783Y21529500D01*
X44239216Y21529501D01*
X44371412Y21539904D01*
X44589683Y21594904D01*
X44794626Y21687993D01*
X44894850Y21757429D01*
X44913764Y21763703D01*
X44930530Y21774477D01*
X44958272Y21778466D01*
X44961164Y21779425D01*
X44965465Y21779500D01*
X45000664Y21779500D01*
X45067703Y21759815D01*
X45088345Y21743181D01*
X45385355Y21446171D01*
X45534914Y21337510D01*
X45544595Y21330476D01*
X45633287Y21285286D01*
X45634684Y21284527D01*
X45658335Y21260981D01*
X45682590Y21238074D01*
X45683049Y21236377D01*
X45684199Y21235232D01*
X45687848Y21218635D01*
X45699500Y21175562D01*
X45699500Y20349500D01*
X45679815Y20282461D01*
X45627011Y20236706D01*
X45575500Y20225500D01*
X44541971Y20225500D01*
X44541965Y20225500D01*
X44541964Y20225499D01*
X44530316Y20224464D01*
X44422584Y20214887D01*
X44226954Y20158911D01*
X44136772Y20111804D01*
X44046593Y20064698D01*
X44046591Y20064697D01*
X44046590Y20064696D01*
X43888890Y19936110D01*
X43760304Y19778410D01*
X43760302Y19778407D01*
X43752722Y19763896D01*
X43666089Y19598046D01*
X43610114Y19402417D01*
X43610113Y19402414D01*
X43599500Y19283034D01*
X43599500Y14888712D01*
X43579815Y14821673D01*
X43527011Y14775918D01*
X43457853Y14765974D01*
X43394297Y14794999D01*
X43361512Y14839899D01*
X43282766Y15023788D01*
X43282764Y15023793D01*
X43230118Y15101578D01*
X43162693Y15201200D01*
X43162685Y15201209D01*
X43011208Y15352686D01*
X43011199Y15352694D01*
X42867193Y15450159D01*
X42833793Y15472764D01*
X42833789Y15472766D01*
X42833787Y15472767D01*
X42636864Y15557095D01*
X42636857Y15557097D01*
X42427534Y15602633D01*
X42412488Y15603529D01*
X42379399Y15605500D01*
X42379388Y15605500D01*
X40024499Y15605500D01*
X39957460Y15625185D01*
X39911705Y15677989D01*
X39900499Y15729500D01*
X39900499Y16251709D01*
X39900498Y16251717D01*
X39890096Y16383912D01*
X39881860Y16416596D01*
X39835097Y16602179D01*
X39835096Y16602182D01*
X39829633Y16614209D01*
X39742007Y16807126D01*
X39696994Y16872098D01*
X39613825Y16992146D01*
X39613820Y16992152D01*
X39613819Y16992154D01*
X39486818Y17119155D01*
X39453334Y17180478D01*
X39450500Y17206836D01*
X39450500Y24898423D01*
X39432586Y25011517D01*
X39419709Y25092826D01*
X39419708Y25092830D01*
X39419708Y25092831D01*
X39360391Y25275388D01*
X39359329Y25279153D01*
X39343950Y25309336D01*
X39269524Y25455405D01*
X39168333Y25594683D01*
X39153834Y25614640D01*
X39153830Y25614645D01*
X34684648Y30083826D01*
X34684646Y30083828D01*
X34525405Y30199524D01*
X34474283Y30225572D01*
X34350030Y30288883D01*
X34162826Y30349710D01*
X33968422Y30380500D01*
X33968417Y30380500D01*
X33403077Y30380500D01*
X33336038Y30400185D01*
X33327591Y30406124D01*
X33172307Y30525277D01*
X33172305Y30525279D01*
X33172299Y30525283D01*
X33172294Y30525286D01*
X33172291Y30525288D01*
X32982209Y30635033D01*
X32982198Y30635038D01*
X32779407Y30719037D01*
X32567378Y30775850D01*
X32349763Y30804499D01*
X32349758Y30804500D01*
X32349753Y30804500D01*
X32130247Y30804500D01*
X32130241Y30804500D01*
X32130236Y30804499D01*
X31912621Y30775850D01*
X31700592Y30719037D01*
X31497801Y30635038D01*
X31497790Y30635033D01*
X31307708Y30525288D01*
X31307692Y30525277D01*
X31149986Y30404265D01*
X31084817Y30379071D01*
X31016372Y30393110D01*
X30966382Y30441924D01*
X30950500Y30502641D01*
X30950500Y32730664D01*
X30970185Y32797703D01*
X30986819Y32818345D01*
X31698852Y33530378D01*
X32428828Y34260354D01*
X32544524Y34419595D01*
X32611625Y34551289D01*
X40369500Y34551289D01*
X40369500Y34308712D01*
X40398848Y34085783D01*
X40401162Y34068211D01*
X40417999Y34005374D01*
X40463947Y33833896D01*
X40532700Y33667913D01*
X40556776Y33609788D01*
X40678064Y33399711D01*
X40678066Y33399708D01*
X40678067Y33399707D01*
X40825733Y33207264D01*
X40825739Y33207257D01*
X40997256Y33035740D01*
X40997263Y33035734D01*
X41110321Y32948982D01*
X41189711Y32888064D01*
X41399788Y32766776D01*
X41623900Y32673946D01*
X41858211Y32611162D01*
X42038586Y32587416D01*
X42098711Y32579500D01*
X42098712Y32579500D01*
X42341289Y32579500D01*
X42389388Y32585833D01*
X42581789Y32611162D01*
X42816100Y32673946D01*
X43040212Y32766776D01*
X43250289Y32888064D01*
X43442738Y33035735D01*
X43614265Y33207262D01*
X43761936Y33399711D01*
X43883224Y33609788D01*
X43976054Y33833900D01*
X44038838Y34068211D01*
X44070500Y34308712D01*
X44070500Y34551288D01*
X44038838Y34791789D01*
X43976054Y35026100D01*
X43883224Y35250212D01*
X43761936Y35460289D01*
X43672153Y35577297D01*
X43614266Y35652737D01*
X43614260Y35652744D01*
X43442743Y35824261D01*
X43442736Y35824267D01*
X43250293Y35971933D01*
X43250292Y35971934D01*
X43250289Y35971936D01*
X43040212Y36093224D01*
X42976303Y36119696D01*
X42816104Y36186053D01*
X42581785Y36248839D01*
X42341289Y36280500D01*
X42341288Y36280500D01*
X42098712Y36280500D01*
X42098711Y36280500D01*
X41858214Y36248839D01*
X41623895Y36186053D01*
X41399794Y36093227D01*
X41399785Y36093223D01*
X41189706Y35971933D01*
X40997263Y35824267D01*
X40997256Y35824261D01*
X40825739Y35652744D01*
X40825733Y35652737D01*
X40678067Y35460294D01*
X40678064Y35460290D01*
X40678064Y35460289D01*
X40676406Y35457417D01*
X40556777Y35250215D01*
X40556773Y35250206D01*
X40463947Y35026105D01*
X40401161Y34791786D01*
X40369500Y34551289D01*
X32611625Y34551289D01*
X32633884Y34594974D01*
X32694709Y34782174D01*
X32696232Y34791789D01*
X32725500Y34976578D01*
X32725500Y38149747D01*
X32745185Y38216786D01*
X32747573Y38220365D01*
X32749703Y38223442D01*
X32754507Y38230374D01*
X32847596Y38435317D01*
X32902596Y38653588D01*
X32913000Y38785783D01*
X32912999Y39814216D01*
X32902596Y39946412D01*
X32901971Y39948891D01*
X32847597Y40164679D01*
X32847596Y40164682D01*
X32836180Y40189815D01*
X32797532Y40274904D01*
X32793301Y40284219D01*
X32783498Y40353398D01*
X32812653Y40416894D01*
X32871509Y40454548D01*
X32906200Y40459500D01*
X34434535Y40459500D01*
X34501574Y40439815D01*
X34505122Y40437448D01*
X34567137Y40394484D01*
X34605372Y40367994D01*
X34605373Y40367994D01*
X34605374Y40367993D01*
X34810317Y40274904D01*
X34810321Y40274903D01*
X35028579Y40219906D01*
X35028581Y40219906D01*
X35028588Y40219904D01*
X35160783Y40209500D01*
X35845448Y40209501D01*
X35845470Y40209500D01*
X35851583Y40209500D01*
X36048416Y40209500D01*
X36406422Y40209500D01*
X36473461Y40189815D01*
X36516330Y40142912D01*
X36535300Y40106596D01*
X36535302Y40106593D01*
X36535304Y40106591D01*
X36663890Y39948891D01*
X36725211Y39898891D01*
X36821593Y39820302D01*
X37001951Y39726091D01*
X37197582Y39670114D01*
X37316963Y39659500D01*
X39683036Y39659501D01*
X39802418Y39670114D01*
X39998049Y39726091D01*
X40178407Y39820302D01*
X40336109Y39948891D01*
X40464698Y40106593D01*
X40558909Y40286951D01*
X40614886Y40482582D01*
X40625500Y40601963D01*
X40625499Y42318036D01*
X40614886Y42437418D01*
X40558909Y42633049D01*
X40538254Y42672590D01*
X40524664Y42741124D01*
X40538255Y42787411D01*
X40558909Y42826951D01*
X40614886Y43022582D01*
X40625500Y43141963D01*
X40625499Y44858034D01*
X44874500Y44858034D01*
X44874500Y43141972D01*
X44874501Y43141966D01*
X44885113Y43022585D01*
X44941090Y42826953D01*
X44941093Y42826944D01*
X44961744Y42787410D01*
X44975335Y42718875D01*
X44961744Y42672590D01*
X44941093Y42633057D01*
X44941090Y42633048D01*
X44885114Y42437417D01*
X44885113Y42437414D01*
X44874500Y42318034D01*
X44874500Y40601972D01*
X44874501Y40601966D01*
X44885113Y40482585D01*
X44941089Y40286955D01*
X44941090Y40286952D01*
X44941091Y40286951D01*
X45035302Y40106593D01*
X45035304Y40106591D01*
X45163890Y39948891D01*
X45225211Y39898891D01*
X45321593Y39820302D01*
X45501951Y39726091D01*
X45697582Y39670114D01*
X45816963Y39659500D01*
X48183036Y39659501D01*
X48302418Y39670114D01*
X48498049Y39726091D01*
X48678407Y39820302D01*
X48836109Y39948891D01*
X48964698Y40106593D01*
X48974046Y40124490D01*
X48983670Y40142912D01*
X49032157Y40193219D01*
X49093578Y40209500D01*
X52655304Y40209500D01*
X52722343Y40189815D01*
X52765212Y40142912D01*
X52784184Y40106593D01*
X52810302Y40056593D01*
X52837908Y40022737D01*
X52938890Y39898891D01*
X53023025Y39830289D01*
X53096593Y39770302D01*
X53276951Y39676091D01*
X53472582Y39620114D01*
X53591963Y39609500D01*
X55408036Y39609501D01*
X55527418Y39620114D01*
X55723049Y39676091D01*
X55903407Y39770302D01*
X56061109Y39898891D01*
X56189698Y40056593D01*
X56283909Y40236951D01*
X56339886Y40432582D01*
X56350500Y40551963D01*
X56350499Y42368036D01*
X56339886Y42487418D01*
X56283909Y42683049D01*
X56189698Y42863407D01*
X56121308Y42947281D01*
X56094199Y43011678D01*
X56106208Y43080507D01*
X56110012Y43087624D01*
X56163224Y43179788D01*
X56256054Y43403900D01*
X56318838Y43638211D01*
X56350500Y43878712D01*
X56350500Y44121288D01*
X56318838Y44361789D01*
X56256054Y44596100D01*
X56163224Y44820212D01*
X56041936Y45030289D01*
X55958154Y45139476D01*
X55894266Y45222737D01*
X55894260Y45222744D01*
X55722743Y45394261D01*
X55722736Y45394267D01*
X55530293Y45541933D01*
X55530292Y45541934D01*
X55530289Y45541936D01*
X55320212Y45663224D01*
X55255340Y45690095D01*
X55096104Y45756053D01*
X54861785Y45818839D01*
X54621289Y45850500D01*
X54621288Y45850500D01*
X54378712Y45850500D01*
X54378711Y45850500D01*
X54138214Y45818839D01*
X53903895Y45756053D01*
X53679794Y45663227D01*
X53679785Y45663223D01*
X53604956Y45620020D01*
X53469838Y45542009D01*
X53469706Y45541933D01*
X53277264Y45394268D01*
X53236407Y45353410D01*
X53169814Y45286818D01*
X53108494Y45253334D01*
X53082135Y45250500D01*
X52594336Y45250500D01*
X52527297Y45270185D01*
X52506655Y45286818D01*
X52506654Y45286819D01*
X52379654Y45413819D01*
X52379650Y45413822D01*
X52379645Y45413826D01*
X52194632Y45542003D01*
X52194630Y45542005D01*
X52194626Y45542007D01*
X51989683Y45635096D01*
X51989681Y45635097D01*
X51989678Y45635098D01*
X51771420Y45690095D01*
X51771413Y45690096D01*
X51727347Y45693564D01*
X51639217Y45700500D01*
X51639215Y45700500D01*
X50985791Y45700500D01*
X50985776Y45700499D01*
X50853586Y45690096D01*
X50853579Y45690095D01*
X50635321Y45635098D01*
X50635318Y45635097D01*
X50451281Y45551504D01*
X50382102Y45541701D01*
X50348719Y45551504D01*
X50164681Y45635097D01*
X50164678Y45635098D01*
X49946420Y45690095D01*
X49946413Y45690096D01*
X49902347Y45693564D01*
X49814217Y45700500D01*
X49814215Y45700500D01*
X49160791Y45700500D01*
X49160776Y45700499D01*
X49028586Y45690096D01*
X49028579Y45690095D01*
X48810327Y45635100D01*
X48810307Y45635093D01*
X48798699Y45629820D01*
X48729520Y45620020D01*
X48684229Y45637265D01*
X48683980Y45636786D01*
X48679933Y45638900D01*
X48679187Y45639184D01*
X48678413Y45639694D01*
X48678409Y45639696D01*
X48678407Y45639698D01*
X48498049Y45733909D01*
X48498048Y45733910D01*
X48498045Y45733911D01*
X48380829Y45767450D01*
X48302418Y45789886D01*
X48302415Y45789887D01*
X48302413Y45789887D01*
X48236102Y45795783D01*
X48183037Y45800500D01*
X48183032Y45800500D01*
X45816971Y45800500D01*
X45816965Y45800500D01*
X45816964Y45800499D01*
X45805316Y45799464D01*
X45697584Y45789887D01*
X45501954Y45733911D01*
X45418075Y45690096D01*
X45321593Y45639698D01*
X45321591Y45639697D01*
X45321590Y45639696D01*
X45163890Y45511110D01*
X45035304Y45353410D01*
X45035302Y45353407D01*
X45000519Y45286818D01*
X44941089Y45173046D01*
X44885114Y44977417D01*
X44885113Y44977414D01*
X44874500Y44858034D01*
X40625499Y44858034D01*
X40625499Y44858036D01*
X40614886Y44977418D01*
X40558909Y45173049D01*
X40464698Y45353407D01*
X40412684Y45417197D01*
X40336109Y45511110D01*
X40190521Y45629820D01*
X40178407Y45639698D01*
X39998049Y45733909D01*
X39998048Y45733910D01*
X39998045Y45733911D01*
X39880829Y45767450D01*
X39802418Y45789886D01*
X39802415Y45789887D01*
X39802413Y45789887D01*
X39736102Y45795783D01*
X39683037Y45800500D01*
X39683032Y45800500D01*
X37316971Y45800500D01*
X37316965Y45800500D01*
X37316964Y45800499D01*
X37305316Y45799464D01*
X37197584Y45789887D01*
X37001954Y45733911D01*
X36918075Y45690096D01*
X36821593Y45639698D01*
X36821591Y45639697D01*
X36821590Y45639696D01*
X36663890Y45511110D01*
X36535304Y45353410D01*
X36535302Y45353407D01*
X36467047Y45222738D01*
X36439679Y45170345D01*
X36391192Y45120038D01*
X36323204Y45103931D01*
X36320041Y45104139D01*
X36318140Y45104289D01*
X36239217Y45110500D01*
X36239215Y45110500D01*
X35160791Y45110500D01*
X35160776Y45110499D01*
X35028586Y45100096D01*
X35028579Y45100095D01*
X34810321Y45045098D01*
X34810318Y45045097D01*
X34605372Y44952007D01*
X34540360Y44906966D01*
X34505149Y44882572D01*
X34438836Y44860575D01*
X34434535Y44860500D01*
X32191578Y44860500D01*
X31997173Y44829710D01*
X31809969Y44768883D01*
X31634591Y44679523D01*
X31627240Y44674181D01*
X31561433Y44650702D01*
X31554356Y44650500D01*
X21401578Y44650500D01*
X21207172Y44619709D01*
X21146348Y44599947D01*
X21146348Y44599946D01*
X21103103Y44585895D01*
X21019970Y44558883D01*
X20886799Y44491028D01*
X20844595Y44469524D01*
X20844594Y44469523D01*
X20836696Y44463785D01*
X20836691Y44463783D01*
X20685352Y44353827D01*
X18526174Y42194649D01*
X18526174Y42194648D01*
X18526172Y42194646D01*
X18491312Y42146666D01*
X18410476Y42035406D01*
X18320669Y41859149D01*
X18319608Y41855388D01*
X18260291Y41672831D01*
X18260291Y41672828D01*
X18229500Y41478423D01*
X18229500Y40217866D01*
X18209815Y40150827D01*
X18193181Y40130185D01*
X18085739Y40022744D01*
X18085733Y40022737D01*
X17938067Y39830294D01*
X17938064Y39830290D01*
X17938064Y39830289D01*
X17936405Y39827416D01*
X17816777Y39620215D01*
X17816773Y39620206D01*
X17723947Y39396105D01*
X17661161Y39161786D01*
X17629500Y38921289D01*
X17629500Y38921288D01*
X17629500Y38678712D01*
X17661162Y38438211D01*
X17692554Y38321056D01*
X17723947Y38203896D01*
X17789617Y38045355D01*
X17816776Y37979788D01*
X17938064Y37769711D01*
X17938066Y37769708D01*
X17938067Y37769707D01*
X18085732Y37577265D01*
X18085734Y37577263D01*
X18085735Y37577262D01*
X18193182Y37469815D01*
X18226666Y37408494D01*
X18229500Y37382135D01*
X18229500Y37049336D01*
X18209815Y36982297D01*
X18198885Y36968735D01*
X18199336Y36968350D01*
X18196174Y36964648D01*
X18196172Y36964646D01*
X18146485Y36896259D01*
X18080476Y36805406D01*
X17991117Y36630029D01*
X17949030Y36500499D01*
X17930291Y36442828D01*
X17930291Y36442826D01*
X17920001Y36377863D01*
X17899457Y36326647D01*
X17807992Y36194625D01*
X17807991Y36194623D01*
X17714903Y35989682D01*
X17714902Y35989679D01*
X17659905Y35771421D01*
X17659904Y35771414D01*
X17649500Y35639223D01*
X17649500Y34560792D01*
X17649501Y34560777D01*
X17659904Y34428587D01*
X17659905Y34428580D01*
X17714902Y34210322D01*
X17714903Y34210319D01*
X17807991Y34005378D01*
X17807997Y34005368D01*
X17832073Y33970616D01*
X17854070Y33904299D01*
X17836722Y33836618D01*
X17832073Y33829384D01*
X17807997Y33794633D01*
X17807991Y33794623D01*
X17714903Y33589682D01*
X17714902Y33589679D01*
X17659905Y33371421D01*
X17659904Y33371414D01*
X17649500Y33239223D01*
X17649500Y32160792D01*
X17649501Y32160777D01*
X17659904Y32028587D01*
X17659905Y32028580D01*
X17714902Y31810322D01*
X17714903Y31810319D01*
X17807993Y31605373D01*
X17822651Y31584216D01*
X17877428Y31505150D01*
X17899425Y31438836D01*
X17899500Y31434535D01*
X17899500Y30851578D01*
X17930290Y30657174D01*
X17991117Y30469970D01*
X18052394Y30349709D01*
X18080476Y30294595D01*
X18130624Y30225572D01*
X18143997Y30207167D01*
X18167477Y30141361D01*
X18151652Y30073307D01*
X18146789Y30065403D01*
X18144723Y30062312D01*
X18034967Y29872210D01*
X18034962Y29872199D01*
X17950963Y29669408D01*
X17894150Y29457379D01*
X17865501Y29239764D01*
X17865500Y29239747D01*
X17865500Y29020254D01*
X17865501Y29020237D01*
X17894150Y28802622D01*
X17950963Y28590593D01*
X18034962Y28387802D01*
X18034967Y28387791D01*
X18144712Y28197709D01*
X18144717Y28197701D01*
X18263876Y28042409D01*
X18289070Y27977241D01*
X18289500Y27966924D01*
X18289500Y25309336D01*
X18269815Y25242297D01*
X18253181Y25221655D01*
X17218345Y24186819D01*
X17157022Y24153334D01*
X17130664Y24150500D01*
X8717865Y24150500D01*
X8650826Y24170185D01*
X8630188Y24186815D01*
X8522738Y24294265D01*
X8522737Y24294266D01*
X8522735Y24294268D01*
X8330293Y24441933D01*
X8330292Y24441934D01*
X8330289Y24441936D01*
X8120212Y24563224D01*
X8120205Y24563227D01*
X7896104Y24656053D01*
X7661785Y24718839D01*
X7421289Y24750500D01*
X7421288Y24750500D01*
X7178712Y24750500D01*
X7178711Y24750500D01*
X6938214Y24718839D01*
X6703895Y24656053D01*
X6479794Y24563227D01*
X6479785Y24563223D01*
X6269706Y24441933D01*
X6077264Y24294268D01*
X6002378Y24219382D01*
X5941054Y24185898D01*
X5871363Y24190883D01*
X5841811Y24206746D01*
X5755405Y24269524D01*
X5580030Y24358883D01*
X5392826Y24419710D01*
X5198422Y24450500D01*
X5198417Y24450500D01*
X5165465Y24450500D01*
X5098426Y24470185D01*
X5094877Y24472553D01*
X5042737Y24508676D01*
X4994627Y24542007D01*
X4789681Y24635097D01*
X4789678Y24635098D01*
X4571420Y24690095D01*
X4571413Y24690096D01*
X4527347Y24693564D01*
X4439217Y24700500D01*
X4439215Y24700500D01*
X3360791Y24700500D01*
X3360776Y24700499D01*
X3228586Y24690096D01*
X3228579Y24690095D01*
X3010321Y24635098D01*
X3010318Y24635097D01*
X2805377Y24542009D01*
X2805367Y24542003D01*
X2620354Y24413826D01*
X2620342Y24413816D01*
X2461184Y24254658D01*
X2461174Y24254646D01*
X2332997Y24069633D01*
X2332991Y24069623D01*
X2239903Y23864682D01*
X2239902Y23864679D01*
X2184905Y23646421D01*
X2184904Y23646414D01*
X2174500Y23514223D01*
X500500Y23514223D01*
X500500Y29239747D01*
X12785500Y29239747D01*
X12785500Y29020254D01*
X12785501Y29020237D01*
X12814150Y28802622D01*
X12870963Y28590593D01*
X12954962Y28387802D01*
X12954967Y28387791D01*
X13064712Y28197709D01*
X13064723Y28197693D01*
X13198341Y28023558D01*
X13198347Y28023551D01*
X13353550Y27868348D01*
X13353557Y27868342D01*
X13369986Y27855736D01*
X13527701Y27734717D01*
X13527708Y27734713D01*
X13717790Y27624968D01*
X13717795Y27624966D01*
X13717798Y27624964D01*
X13819196Y27582964D01*
X13920592Y27540964D01*
X13920593Y27540964D01*
X13920595Y27540963D01*
X14132620Y27484151D01*
X14350247Y27455500D01*
X14350254Y27455500D01*
X14569746Y27455500D01*
X14569753Y27455500D01*
X14787380Y27484151D01*
X14999405Y27540963D01*
X15202202Y27624964D01*
X15392299Y27734717D01*
X15566444Y27868343D01*
X15721657Y28023556D01*
X15855283Y28197701D01*
X15965036Y28387798D01*
X16049037Y28590595D01*
X16105849Y28802620D01*
X16134500Y29020247D01*
X16134500Y29239753D01*
X16105849Y29457380D01*
X16049037Y29669405D01*
X15965036Y29872202D01*
X15965034Y29872205D01*
X15965032Y29872210D01*
X15855287Y30062292D01*
X15855283Y30062299D01*
X15744122Y30207167D01*
X15721658Y30236443D01*
X15721652Y30236450D01*
X15566449Y30391653D01*
X15566442Y30391659D01*
X15392307Y30525277D01*
X15392305Y30525279D01*
X15392299Y30525283D01*
X15392294Y30525286D01*
X15392291Y30525288D01*
X15202209Y30635033D01*
X15202198Y30635038D01*
X14999407Y30719037D01*
X14787378Y30775850D01*
X14569763Y30804499D01*
X14569758Y30804500D01*
X14569753Y30804500D01*
X14350247Y30804500D01*
X14350241Y30804500D01*
X14350236Y30804499D01*
X14132621Y30775850D01*
X13920592Y30719037D01*
X13717801Y30635038D01*
X13717790Y30635033D01*
X13527708Y30525288D01*
X13527692Y30525277D01*
X13353557Y30391659D01*
X13353550Y30391653D01*
X13198347Y30236450D01*
X13198341Y30236443D01*
X13064723Y30062308D01*
X13064712Y30062292D01*
X12954967Y29872210D01*
X12954962Y29872199D01*
X12870963Y29669408D01*
X12814150Y29457379D01*
X12785501Y29239764D01*
X12785500Y29239747D01*
X500500Y29239747D01*
X500500Y45934398D01*
X1849500Y45934398D01*
X1849500Y45665603D01*
X1884582Y45399120D01*
X1884583Y45399115D01*
X1884584Y45399109D01*
X1885882Y45394265D01*
X1954152Y45139476D01*
X2057011Y44891150D01*
X2057019Y44891134D01*
X2097970Y44820206D01*
X2191413Y44658359D01*
X2191415Y44658356D01*
X2191416Y44658355D01*
X2355042Y44445112D01*
X2355048Y44445105D01*
X2545104Y44255049D01*
X2545110Y44255044D01*
X2758359Y44091413D01*
X2907968Y44005036D01*
X2991133Y43957020D01*
X2991149Y43957012D01*
X3146008Y43892868D01*
X3239474Y43854153D01*
X3499109Y43784584D01*
X3687319Y43759807D01*
X3765602Y43749500D01*
X3765603Y43749500D01*
X4034398Y43749500D01*
X4094905Y43757466D01*
X4300891Y43784584D01*
X4560526Y43854153D01*
X4747457Y43931583D01*
X4808850Y43957012D01*
X4808853Y43957014D01*
X4808859Y43957016D01*
X5041641Y44091413D01*
X5254890Y44255044D01*
X5444956Y44445110D01*
X5608587Y44658359D01*
X5742984Y44891141D01*
X5845847Y45139474D01*
X5915416Y45399109D01*
X5950500Y45665603D01*
X5950500Y45934397D01*
X5915416Y46200891D01*
X5845847Y46460526D01*
X5807132Y46553992D01*
X5742988Y46708851D01*
X5742980Y46708867D01*
X5694964Y46792032D01*
X5608587Y46941641D01*
X5444956Y47154890D01*
X5444951Y47154896D01*
X5254895Y47344952D01*
X5254888Y47344958D01*
X5041645Y47508584D01*
X5041644Y47508585D01*
X5041641Y47508587D01*
X4948832Y47562170D01*
X4808866Y47642981D01*
X4808850Y47642989D01*
X4560524Y47745848D01*
X4430708Y47780632D01*
X4300891Y47815416D01*
X4300885Y47815417D01*
X4300880Y47815418D01*
X4034398Y47850500D01*
X4034397Y47850500D01*
X3765603Y47850500D01*
X3765602Y47850500D01*
X3499119Y47815418D01*
X3499112Y47815417D01*
X3499109Y47815416D01*
X3444239Y47800714D01*
X3239475Y47745848D01*
X2991149Y47642989D01*
X2991133Y47642981D01*
X2758354Y47508584D01*
X2545111Y47344958D01*
X2545104Y47344952D01*
X2355048Y47154896D01*
X2355042Y47154889D01*
X2191416Y46941646D01*
X2057019Y46708867D01*
X2057011Y46708851D01*
X1954152Y46460525D01*
X1884585Y46200894D01*
X1884582Y46200881D01*
X1849500Y45934398D01*
X500500Y45934398D01*
X500500Y49375500D01*
X520185Y49442539D01*
X572989Y49488294D01*
X624500Y49499500D01*
X59375500Y49499500D01*
X59442539Y49479815D01*
G37*
G04 #@! TD.AperFunction*
M02*
