M48
; DRILL file {KiCad 9.0.7} date 2026-02-17T18:12:56-0600
; FORMAT={-:-/ absolute / metric / decimal}
; #@! TF.CreationDate,2026-02-17T18:12:56-06:00
; #@! TF.GenerationSoftware,Kicad,Pcbnew,9.0.7
; #@! TF.FileFunction,MixedPlating,1,2
FMAT,2
METRIC
; #@! TA.AperFunction,Plated,PTH,ComponentDrill
T1C0.800
; #@! TA.AperFunction,Plated,PTH,ComponentDrill
T2C0.840
; #@! TA.AperFunction,Plated,PTH,ComponentDrill
T3C1.000
; #@! TA.AperFunction,Plated,PTH,ComponentDrill
T4C1.600
; #@! TA.AperFunction,NonPlated,NPTH,ComponentDrill
T5C3.500
%
G90
G05
T1
X54.0Y37.2
X54.0Y34.7
T2
X14.46Y29.13
X14.46Y13.89
X17.0Y29.13
X17.0Y13.89
X19.54Y29.13
X19.54Y13.89
X22.08Y29.13
X22.08Y13.89
X24.62Y29.13
X24.62Y13.89
X27.16Y29.13
X27.16Y13.89
X29.7Y29.13
X29.7Y13.89
X32.24Y29.13
X32.24Y13.89
T3
X7.3Y25.44
X7.3Y22.9
X7.3Y20.36
X7.3Y17.82
X14.34Y9.1
X16.88Y9.1
X16.94Y38.8
X19.42Y9.1
X19.48Y38.8
X21.96Y9.1
X22.02Y38.8
X24.5Y9.1
X24.56Y38.8
X27.1Y38.8
X29.2Y9.24
X29.2Y6.7
X33.6Y9.213
X33.6Y6.672
X42.22Y34.43
X44.76Y34.43
X44.86Y29.83
X47.3Y34.43
X47.4Y29.83
X47.5Y25.005
X47.5Y22.465
X54.5Y44.0
X54.5Y41.46
T4
X54.2Y30.17
X54.2Y14.93
T5
X3.9Y45.8
X3.9Y4.0
X56.0Y4.0
M30
