G04 #@! TF.GenerationSoftware,KiCad,Pcbnew,9.0.7*
G04 #@! TF.CreationDate,2026-02-17T18:12:50-06:00*
G04 #@! TF.ProjectId,CNC_Coolant_Pump_Control,434e435f-436f-46f6-9c61-6e745f50756d,rev?*
G04 #@! TF.SameCoordinates,PX3750280PY66ff300*
G04 #@! TF.FileFunction,Soldermask,Bot*
G04 #@! TF.FilePolarity,Negative*
%FSLAX46Y46*%
G04 Gerber Fmt 4.6, Leading zero omitted, Abs format (unit mm)*
G04 Created by KiCad (PCBNEW 9.0.7) date 2026-02-17 18:12:50*
%MOMM*%
%LPD*%
G01*
G04 APERTURE LIST*
%ADD10C,1.600000*%
%ADD11R,1.700000X1.700000*%
%ADD12C,1.700000*%
%ADD13C,3.200000*%
%ADD14C,1.552000*%
%ADD15C,3.500000*%
G04 APERTURE END LIST*
G36*
G01*
X54550000Y33900000D02*
X53450000Y33900000D01*
G75*
G02*
X53200000Y34150000I0J250000D01*
G01*
X53200000Y35250000D01*
G75*
G02*
X53450000Y35500000I250000J0D01*
G01*
X54550000Y35500000D01*
G75*
G02*
X54800000Y35250000I0J-250000D01*
G01*
X54800000Y34150000D01*
G75*
G02*
X54550000Y33900000I-250000J0D01*
G01*
G37*
D10*
X54000000Y37200000D03*
D11*
X29200000Y9240000D03*
D12*
X29200000Y6700000D03*
D11*
X33600000Y9212500D03*
D12*
X33600000Y6672500D03*
G36*
G01*
X52850000Y31770000D02*
X55550000Y31770000D01*
G75*
G02*
X55800000Y31520000I0J-250000D01*
G01*
X55800000Y28820000D01*
G75*
G02*
X55550000Y28570000I-250000J0D01*
G01*
X52850000Y28570000D01*
G75*
G02*
X52600000Y28820000I0J250000D01*
G01*
X52600000Y31520000D01*
G75*
G02*
X52850000Y31770000I250000J0D01*
G01*
G37*
D13*
X54200000Y14930000D03*
D11*
X47400000Y29830000D03*
D12*
X44860000Y29830000D03*
D14*
X32240000Y29130000D03*
X29700000Y29130000D03*
X27160000Y29130000D03*
X24620000Y29130000D03*
X19540000Y29130000D03*
X22080000Y29130000D03*
X14460000Y13890000D03*
X14460000Y29130000D03*
X17000000Y13890000D03*
X19540000Y13890000D03*
X22080000Y13890000D03*
X24620000Y13890000D03*
X27160000Y13890000D03*
X29700000Y13890000D03*
X32240000Y13890000D03*
X17000000Y29130000D03*
D15*
X3900000Y4000000D03*
D11*
X47300000Y34430000D03*
D12*
X44760000Y34430000D03*
X42220000Y34430000D03*
D11*
X27100000Y38800000D03*
D12*
X24560000Y38800000D03*
X22020000Y38800000D03*
X19480000Y38800000D03*
X16940000Y38800000D03*
D11*
X47500000Y25005000D03*
D12*
X47500000Y22465000D03*
D11*
X54500000Y41460000D03*
D12*
X54500000Y44000000D03*
D11*
X7300000Y17820000D03*
D12*
X7300000Y20360000D03*
X7300000Y22900000D03*
X7300000Y25440000D03*
D15*
X56000000Y4000000D03*
X3900000Y45800000D03*
D11*
X14340000Y9100000D03*
D12*
X16880000Y9100000D03*
X19420000Y9100000D03*
X21960000Y9100000D03*
X24500000Y9100000D03*
G36*
G01*
X48227000Y44800000D02*
X48227000Y43200000D01*
G75*
G02*
X48125000Y43098000I-102000J0D01*
G01*
X45875000Y43098000D01*
G75*
G02*
X45773000Y43200000I0J102000D01*
G01*
X45773000Y44800000D01*
G75*
G02*
X45875000Y44902000I102000J0D01*
G01*
X48125000Y44902000D01*
G75*
G02*
X48227000Y44800000I0J-102000D01*
G01*
G37*
G36*
G01*
X48227000Y42260000D02*
X48227000Y40660000D01*
G75*
G02*
X48125000Y40558000I-102000J0D01*
G01*
X45875000Y40558000D01*
G75*
G02*
X45773000Y40660000I0J102000D01*
G01*
X45773000Y42260000D01*
G75*
G02*
X45875000Y42362000I102000J0D01*
G01*
X48125000Y42362000D01*
G75*
G02*
X48227000Y42260000I0J-102000D01*
G01*
G37*
G36*
G01*
X39727000Y42260000D02*
X39727000Y40660000D01*
G75*
G02*
X39625000Y40558000I-102000J0D01*
G01*
X37375000Y40558000D01*
G75*
G02*
X37273000Y40660000I0J102000D01*
G01*
X37273000Y42260000D01*
G75*
G02*
X37375000Y42362000I102000J0D01*
G01*
X39625000Y42362000D01*
G75*
G02*
X39727000Y42260000I0J-102000D01*
G01*
G37*
G36*
G01*
X39727000Y44800000D02*
X39727000Y43200000D01*
G75*
G02*
X39625000Y43098000I-102000J0D01*
G01*
X37375000Y43098000D01*
G75*
G02*
X37273000Y43200000I0J102000D01*
G01*
X37273000Y44800000D01*
G75*
G02*
X37375000Y44902000I102000J0D01*
G01*
X39625000Y44902000D01*
G75*
G02*
X39727000Y44800000I0J-102000D01*
G01*
G37*
G36*
G01*
X35225000Y44110000D02*
X36175000Y44110000D01*
G75*
G02*
X36425000Y43860000I0J-250000D01*
G01*
X36425000Y43360000D01*
G75*
G02*
X36175000Y43110000I-250000J0D01*
G01*
X35225000Y43110000D01*
G75*
G02*
X34975000Y43360000I0J250000D01*
G01*
X34975000Y43860000D01*
G75*
G02*
X35225000Y44110000I250000J0D01*
G01*
G37*
G36*
G01*
X35225000Y42210000D02*
X36175000Y42210000D01*
G75*
G02*
X36425000Y41960000I0J-250000D01*
G01*
X36425000Y41460000D01*
G75*
G02*
X36175000Y41210000I-250000J0D01*
G01*
X35225000Y41210000D01*
G75*
G02*
X34975000Y41460000I0J250000D01*
G01*
X34975000Y41960000D01*
G75*
G02*
X35225000Y42210000I250000J0D01*
G01*
G37*
G36*
G01*
X27250000Y18612500D02*
X28150000Y18612500D01*
G75*
G02*
X28400000Y18362500I0J-250000D01*
G01*
X28400000Y17837500D01*
G75*
G02*
X28150000Y17587500I-250000J0D01*
G01*
X27250000Y17587500D01*
G75*
G02*
X27000000Y17837500I0J250000D01*
G01*
X27000000Y18362500D01*
G75*
G02*
X27250000Y18612500I250000J0D01*
G01*
G37*
G36*
G01*
X27250000Y16787500D02*
X28150000Y16787500D01*
G75*
G02*
X28400000Y16537500I0J-250000D01*
G01*
X28400000Y16012500D01*
G75*
G02*
X28150000Y15762500I-250000J0D01*
G01*
X27250000Y15762500D01*
G75*
G02*
X27000000Y16012500I0J250000D01*
G01*
X27000000Y16537500D01*
G75*
G02*
X27250000Y16787500I250000J0D01*
G01*
G37*
G36*
G01*
X19650000Y35575000D02*
X19650000Y34625000D01*
G75*
G02*
X19400000Y34375000I-250000J0D01*
G01*
X18900000Y34375000D01*
G75*
G02*
X18650000Y34625000I0J250000D01*
G01*
X18650000Y35575000D01*
G75*
G02*
X18900000Y35825000I250000J0D01*
G01*
X19400000Y35825000D01*
G75*
G02*
X19650000Y35575000I0J-250000D01*
G01*
G37*
G36*
G01*
X17750000Y35575000D02*
X17750000Y34625000D01*
G75*
G02*
X17500000Y34375000I-250000J0D01*
G01*
X17000000Y34375000D01*
G75*
G02*
X16750000Y34625000I0J250000D01*
G01*
X16750000Y35575000D01*
G75*
G02*
X17000000Y35825000I250000J0D01*
G01*
X17500000Y35825000D01*
G75*
G02*
X17750000Y35575000I0J-250000D01*
G01*
G37*
G36*
G01*
X4375000Y22700000D02*
X3425000Y22700000D01*
G75*
G02*
X3175000Y22950000I0J250000D01*
G01*
X3175000Y23450000D01*
G75*
G02*
X3425000Y23700000I250000J0D01*
G01*
X4375000Y23700000D01*
G75*
G02*
X4625000Y23450000I0J-250000D01*
G01*
X4625000Y22950000D01*
G75*
G02*
X4375000Y22700000I-250000J0D01*
G01*
G37*
G36*
G01*
X4375000Y24600000D02*
X3425000Y24600000D01*
G75*
G02*
X3175000Y24850000I0J250000D01*
G01*
X3175000Y25350000D01*
G75*
G02*
X3425000Y25600000I250000J0D01*
G01*
X4375000Y25600000D01*
G75*
G02*
X4625000Y25350000I0J-250000D01*
G01*
X4625000Y24850000D01*
G75*
G02*
X4375000Y24600000I-250000J0D01*
G01*
G37*
G36*
G01*
X38650000Y13587500D02*
X37750000Y13587500D01*
G75*
G02*
X37500000Y13837500I0J250000D01*
G01*
X37500000Y14362500D01*
G75*
G02*
X37750000Y14612500I250000J0D01*
G01*
X38650000Y14612500D01*
G75*
G02*
X38900000Y14362500I0J-250000D01*
G01*
X38900000Y13837500D01*
G75*
G02*
X38650000Y13587500I-250000J0D01*
G01*
G37*
G36*
G01*
X38650000Y15412500D02*
X37750000Y15412500D01*
G75*
G02*
X37500000Y15662500I0J250000D01*
G01*
X37500000Y16187500D01*
G75*
G02*
X37750000Y16437500I250000J0D01*
G01*
X38650000Y16437500D01*
G75*
G02*
X38900000Y16187500I0J-250000D01*
G01*
X38900000Y15662500D01*
G75*
G02*
X38650000Y15412500I-250000J0D01*
G01*
G37*
G36*
G01*
X41062500Y12512500D02*
X41962500Y12512500D01*
G75*
G02*
X42212500Y12262500I0J-250000D01*
G01*
X42212500Y11737500D01*
G75*
G02*
X41962500Y11487500I-250000J0D01*
G01*
X41062500Y11487500D01*
G75*
G02*
X40812500Y11737500I0J250000D01*
G01*
X40812500Y12262500D01*
G75*
G02*
X41062500Y12512500I250000J0D01*
G01*
G37*
G36*
G01*
X41062500Y10687500D02*
X41962500Y10687500D01*
G75*
G02*
X42212500Y10437500I0J-250000D01*
G01*
X42212500Y9912500D01*
G75*
G02*
X41962500Y9662500I-250000J0D01*
G01*
X41062500Y9662500D01*
G75*
G02*
X40812500Y9912500I0J250000D01*
G01*
X40812500Y10437500D01*
G75*
G02*
X41062500Y10687500I250000J0D01*
G01*
G37*
G36*
G01*
X39483000Y13679750D02*
X39483000Y14560250D01*
G75*
G02*
X39629750Y14707000I146750J0D01*
G01*
X42370250Y14707000D01*
G75*
G02*
X42517000Y14560250I0J-146750D01*
G01*
X42517000Y13679750D01*
G75*
G02*
X42370250Y13533000I-146750J0D01*
G01*
X39629750Y13533000D01*
G75*
G02*
X39483000Y13679750I0J146750D01*
G01*
G37*
G36*
G01*
X39483000Y18259750D02*
X39483000Y19140250D01*
G75*
G02*
X39629750Y19287000I146750J0D01*
G01*
X42370250Y19287000D01*
G75*
G02*
X42517000Y19140250I0J-146750D01*
G01*
X42517000Y18259750D01*
G75*
G02*
X42370250Y18113000I-146750J0D01*
G01*
X39629750Y18113000D01*
G75*
G02*
X39483000Y18259750I0J146750D01*
G01*
G37*
G36*
G01*
X44498000Y13595000D02*
X44498000Y19225000D01*
G75*
G02*
X44600000Y19327000I102000J0D01*
G01*
X50700000Y19327000D01*
G75*
G02*
X50802000Y19225000I0J-102000D01*
G01*
X50802000Y13595000D01*
G75*
G02*
X50700000Y13493000I-102000J0D01*
G01*
X44600000Y13493000D01*
G75*
G02*
X44498000Y13595000I0J102000D01*
G01*
G37*
G36*
G01*
X22100000Y5525000D02*
X22100000Y6475000D01*
G75*
G02*
X22350000Y6725000I250000J0D01*
G01*
X22850000Y6725000D01*
G75*
G02*
X23100000Y6475000I0J-250000D01*
G01*
X23100000Y5525000D01*
G75*
G02*
X22850000Y5275000I-250000J0D01*
G01*
X22350000Y5275000D01*
G75*
G02*
X22100000Y5525000I0J250000D01*
G01*
G37*
G36*
G01*
X24000000Y5525000D02*
X24000000Y6475000D01*
G75*
G02*
X24250000Y6725000I250000J0D01*
G01*
X24750000Y6725000D01*
G75*
G02*
X25000000Y6475000I0J-250000D01*
G01*
X25000000Y5525000D01*
G75*
G02*
X24750000Y5275000I-250000J0D01*
G01*
X24250000Y5275000D01*
G75*
G02*
X24000000Y5525000I0J250000D01*
G01*
G37*
G36*
G01*
X51825000Y44450000D02*
X51825000Y43550000D01*
G75*
G02*
X51575000Y43300000I-250000J0D01*
G01*
X51050000Y43300000D01*
G75*
G02*
X50800000Y43550000I0J250000D01*
G01*
X50800000Y44450000D01*
G75*
G02*
X51050000Y44700000I250000J0D01*
G01*
X51575000Y44700000D01*
G75*
G02*
X51825000Y44450000I0J-250000D01*
G01*
G37*
G36*
G01*
X50000000Y44450000D02*
X50000000Y43550000D01*
G75*
G02*
X49750000Y43300000I-250000J0D01*
G01*
X49225000Y43300000D01*
G75*
G02*
X48975000Y43550000I0J250000D01*
G01*
X48975000Y44450000D01*
G75*
G02*
X49225000Y44700000I250000J0D01*
G01*
X49750000Y44700000D01*
G75*
G02*
X50000000Y44450000I0J-250000D01*
G01*
G37*
G36*
G01*
X19650000Y33175000D02*
X19650000Y32225000D01*
G75*
G02*
X19400000Y31975000I-250000J0D01*
G01*
X18900000Y31975000D01*
G75*
G02*
X18650000Y32225000I0J250000D01*
G01*
X18650000Y33175000D01*
G75*
G02*
X18900000Y33425000I250000J0D01*
G01*
X19400000Y33425000D01*
G75*
G02*
X19650000Y33175000I0J-250000D01*
G01*
G37*
G36*
G01*
X17750000Y33175000D02*
X17750000Y32225000D01*
G75*
G02*
X17500000Y31975000I-250000J0D01*
G01*
X17000000Y31975000D01*
G75*
G02*
X16750000Y32225000I0J250000D01*
G01*
X16750000Y33175000D01*
G75*
G02*
X17000000Y33425000I250000J0D01*
G01*
X17500000Y33425000D01*
G75*
G02*
X17750000Y33175000I0J-250000D01*
G01*
G37*
G36*
G01*
X43225000Y25430000D02*
X44175000Y25430000D01*
G75*
G02*
X44425000Y25180000I0J-250000D01*
G01*
X44425000Y24680000D01*
G75*
G02*
X44175000Y24430000I-250000J0D01*
G01*
X43225000Y24430000D01*
G75*
G02*
X42975000Y24680000I0J250000D01*
G01*
X42975000Y25180000D01*
G75*
G02*
X43225000Y25430000I250000J0D01*
G01*
G37*
G36*
G01*
X43225000Y23530000D02*
X44175000Y23530000D01*
G75*
G02*
X44425000Y23280000I0J-250000D01*
G01*
X44425000Y22780000D01*
G75*
G02*
X44175000Y22530000I-250000J0D01*
G01*
X43225000Y22530000D01*
G75*
G02*
X42975000Y22780000I0J250000D01*
G01*
X42975000Y23280000D01*
G75*
G02*
X43225000Y23530000I250000J0D01*
G01*
G37*
G36*
G01*
X30887500Y38850000D02*
X30887500Y39750000D01*
G75*
G02*
X31137500Y40000000I250000J0D01*
G01*
X31662500Y40000000D01*
G75*
G02*
X31912500Y39750000I0J-250000D01*
G01*
X31912500Y38850000D01*
G75*
G02*
X31662500Y38600000I-250000J0D01*
G01*
X31137500Y38600000D01*
G75*
G02*
X30887500Y38850000I0J250000D01*
G01*
G37*
G36*
G01*
X32712500Y38850000D02*
X32712500Y39750000D01*
G75*
G02*
X32962500Y40000000I250000J0D01*
G01*
X33487500Y40000000D01*
G75*
G02*
X33737500Y39750000I0J-250000D01*
G01*
X33737500Y38850000D01*
G75*
G02*
X33487500Y38600000I-250000J0D01*
G01*
X32962500Y38600000D01*
G75*
G02*
X32712500Y38850000I0J250000D01*
G01*
G37*
G36*
G01*
X31750000Y18625000D02*
X32650000Y18625000D01*
G75*
G02*
X32900000Y18375000I0J-250000D01*
G01*
X32900000Y17850000D01*
G75*
G02*
X32650000Y17600000I-250000J0D01*
G01*
X31750000Y17600000D01*
G75*
G02*
X31500000Y17850000I0J250000D01*
G01*
X31500000Y18375000D01*
G75*
G02*
X31750000Y18625000I250000J0D01*
G01*
G37*
G36*
G01*
X31750000Y16800000D02*
X32650000Y16800000D01*
G75*
G02*
X32900000Y16550000I0J-250000D01*
G01*
X32900000Y16025000D01*
G75*
G02*
X32650000Y15775000I-250000J0D01*
G01*
X31750000Y15775000D01*
G75*
G02*
X31500000Y16025000I0J250000D01*
G01*
X31500000Y16550000D01*
G75*
G02*
X31750000Y16800000I250000J0D01*
G01*
G37*
M02*
