G04 #@! TF.GenerationSoftware,KiCad,Pcbnew,9.0.7*
G04 #@! TF.CreationDate,2026-02-17T18:12:50-06:00*
G04 #@! TF.ProjectId,CNC_Coolant_Pump_Control,434e435f-436f-46f6-9c61-6e745f50756d,rev?*
G04 #@! TF.SameCoordinates,PX3750280PY66ff300*
G04 #@! TF.FileFunction,Soldermask,Top*
G04 #@! TF.FilePolarity,Negative*
%FSLAX46Y46*%
G04 Gerber Fmt 4.6, Leading zero omitted, Abs format (unit mm)*
G04 Created by KiCad (PCBNEW 9.0.7) date 2026-02-17 18:12:50*
%MOMM*%
%LPD*%
G01*
G04 APERTURE LIST*
%ADD10C,1.600000*%
%ADD11R,1.700000X1.700000*%
%ADD12C,1.700000*%
%ADD13C,3.200000*%
%ADD14C,1.552000*%
%ADD15C,3.500000*%
G04 APERTURE END LIST*
G36*
G01*
X54550000Y33900000D02*
X53450000Y33900000D01*
G75*
G02*
X53200000Y34150000I0J250000D01*
G01*
X53200000Y35250000D01*
G75*
G02*
X53450000Y35500000I250000J0D01*
G01*
X54550000Y35500000D01*
G75*
G02*
X54800000Y35250000I0J-250000D01*
G01*
X54800000Y34150000D01*
G75*
G02*
X54550000Y33900000I-250000J0D01*
G01*
G37*
D10*
X54000000Y37200000D03*
D11*
X29200000Y9240000D03*
D12*
X29200000Y6700000D03*
D11*
X33600000Y9212500D03*
D12*
X33600000Y6672500D03*
G36*
G01*
X52850000Y31770000D02*
X55550000Y31770000D01*
G75*
G02*
X55800000Y31520000I0J-250000D01*
G01*
X55800000Y28820000D01*
G75*
G02*
X55550000Y28570000I-250000J0D01*
G01*
X52850000Y28570000D01*
G75*
G02*
X52600000Y28820000I0J250000D01*
G01*
X52600000Y31520000D01*
G75*
G02*
X52850000Y31770000I250000J0D01*
G01*
G37*
D13*
X54200000Y14930000D03*
D11*
X47400000Y29830000D03*
D12*
X44860000Y29830000D03*
D14*
X32240000Y29130000D03*
X29700000Y29130000D03*
X27160000Y29130000D03*
X24620000Y29130000D03*
X19540000Y29130000D03*
X22080000Y29130000D03*
X14460000Y13890000D03*
X14460000Y29130000D03*
X17000000Y13890000D03*
X19540000Y13890000D03*
X22080000Y13890000D03*
X24620000Y13890000D03*
X27160000Y13890000D03*
X29700000Y13890000D03*
X32240000Y13890000D03*
X17000000Y29130000D03*
D15*
X3900000Y4000000D03*
D11*
X47300000Y34430000D03*
D12*
X44760000Y34430000D03*
X42220000Y34430000D03*
D11*
X27100000Y38800000D03*
D12*
X24560000Y38800000D03*
X22020000Y38800000D03*
X19480000Y38800000D03*
X16940000Y38800000D03*
D11*
X47500000Y25005000D03*
D12*
X47500000Y22465000D03*
D11*
X54500000Y41460000D03*
D12*
X54500000Y44000000D03*
D11*
X7300000Y17820000D03*
D12*
X7300000Y20360000D03*
X7300000Y22900000D03*
X7300000Y25440000D03*
D15*
X56000000Y4000000D03*
X3900000Y45800000D03*
D11*
X14340000Y9100000D03*
D12*
X16880000Y9100000D03*
X19420000Y9100000D03*
X21960000Y9100000D03*
X24500000Y9100000D03*
M02*
